<svg version="1.0" xmlns="http://www.w3.org/2000/svg" viewBox="0 0 190 80" color-interpolation-filters="sRGB" style="margin:auto" width="190" height="80">
  <g fill="#fff" class="basesvg">
    <path d="M30 10q2.9 0 5.47 1.12 2.58 1.12 4.48 3.02t3.02 4.44q1.11 2.54 1.11 5.45t-1.11 5.48q-1.12 2.57 -3.02 4.47t-4.48 3.02q-2.57 1.12 -5.47 1.12h-5.59l2.74 -6.71h2.85q3.02 0 5.2 -2.18t2.18 -5.2q0 -3.07 -2.18 -5.14 -2.18 -2.18 -5.2 -2.18h-7.89v32.42h-6.7v-39.13zm41.7 11.18h7.38l-12.97 27.95 -1.73 3.8q-1.57 3.41 -4.7 5.42 -3.13 2.02 -6.93 2.02h-2.96l1.67 -6.71h1.62q1.62 0 3.02 -0.9 1.4 -0.89 2.07 -2.4l0.56 -1.23 -12.97 -27.95h7.38l9.28 20.01zm36.5 7.04q2.24 1.57 3.58 4.03t1.34 5.36v0.12q0 2.34 -0.89 4.44 -0.9 2.1 -2.46 3.63 -1.57 1.54 -3.64 2.44 -2.07 0.89 -4.41 0.89h-11.13l2.69 -6.71h8.44q1.95 0 3.32 -1.37t1.37 -3.32v-0.12q0 -1.95 -1.37 -3.32t-3.32 -1.37h-13.7v16.21h-6.71v-39.13h17.67q2.35 0 4.44 0.89 2.1 0.9 3.64 2.46 1.53 1.57 2.43 3.64 0.89 2.07 0.89 4.41v0.12q0 1.9 -0.59 3.6 -0.58 1.71 -1.59 3.1m-4.53 -6.7v-0.12q0 -1.95 -1.37 -3.32t-3.32 -1.37h-10.96v9.5h10.96q1.95 0 3.32 -1.37t1.37 -3.32m35.05 -0.4h6.71v28.01h-6.71v-13.98q0 -3.35 -2.34 -5.7 -2.35 -2.34 -5.71 -2.34 -1.62 0 -3.1 0.61t-2.6 1.73q-2.35 2.35 -2.35 5.7 0 3.3 2.35 5.65 1.12 1.17 2.6 1.76t3.1 0.59q1.68 0 3.02 -0.56l2.41 5.98q-2.58 1.29 -5.99 1.29 -3.07 0 -5.67 -1.15t-4.5 -3.16 -2.96 -4.69q-1.06 -2.69 -1.06 -5.71 0 -3.07 1.06 -5.75 1.06 -2.69 2.96 -4.7t4.5 -3.16q2.6 -1.14 5.67 -1.14 2.74 0 4.87 0.84 2.12 0.83 3.74 2.12zm32.59 0h6.71v39.19h-6.71v-25.16q0 -3.35 -2.34 -5.7 -2.46 -2.34 -5.71 -2.34 -3.35 0 -5.7 2.34 -2.35 2.35 -2.35 5.7 0 3.3 2.35 5.65 1.12 1.17 2.6 1.76t3.1 0.59q1.68 0 3.02 -0.56l2.41 5.98q-2.69 1.29 -5.99 1.29 -3.07 0 -5.67 -1.15t-4.5 -3.16 -2.96 -4.69q-1.06 -2.69 -1.06 -5.71 0 -3.07 1.06 -5.75 1.06 -2.69 2.96 -4.7t4.5 -3.16q2.6 -1.14 5.67 -1.14 2.74 0 4.87 0.84 2.12 0.83 3.74 2.12z" data-gra="path-name" class="tp-name"/>
    <g data-gra="path-slogan" class="tp-slogan">
      <path d="M15 70h12.095v1h-12.095zm140.515 0h12.095v1h-12.095zm-125.42 -4.35v7.87h1v-3.12h1.41q0.65 0 1.18 -0.15a2.5 2.5 0 0 0 0.92 -0.45 2 2 0 0 0 0.6 -0.76q0.21 -0.45 0.21 -1.08a2.5 2.5 0 0 0 -0.21 -1.09q-0.215 -0.44 -0.59 -0.71c-0.375 -0.27 -0.56 -0.31 -0.92 -0.39s-0.76 -0.12 -1.19 -0.12zm2.29 3.93h-1.29v-3.13h1.29q1.02 0 1.53 0.33 0.5 0.335 0.5 1.18c0 0.845 -0.17 0.97 -0.5 1.23q-0.495 0.39 -1.53 0.39m5.77 0.89v3.05h1.01v-3.05l2.37 -4.82h-1.05l-1.01 2.22q-0.175 0.435 -0.38 0.85c-0.205 0.415 -0.27 0.57 -0.41 0.86h-0.05l-0.38 -0.86 -0.37 -0.85 -1.02 -2.22h-1.07zm5.91 -3.98v7.03h1.01v-7.03h2.37v-0.84h-5.76v0.84zm4.8 -0.84v7.87h0.99v-3.71h3.66v3.71h1.01v-7.87h-1.01v3.3h-3.66v-3.3zm10.73 8.01q0.74 0 1.36 -0.28a3 3 0 0 0 1.07 -0.83q0.45 -0.525 0.69 -1.29 0.25 -0.765 0.25 -1.71a4 4 0 0 0 -0.25 -1.69q-0.24 -0.75 -0.69 -1.27a2.5 2.5 0 0 0 -1.07 -0.8 3.2 3.2 0 0 0 -1.36 -0.29q-0.745 0.005 -1.37 0.28a3 3 0 0 0 -1.06 0.8 4 4 0 0 0 -0.69 1.27q-0.24 0.75 -0.24 1.7 0 0.945 0.24 1.71 0.255 0.765 0.69 1.29a3 3 0 0 0 1.06 0.83 3.25 3.25 0 0 0 1.37 0.28m0 -0.87a2 2 0 0 1 -1.69 -0.88 3.5 3.5 0 0 1 -0.47 -1.02q-0.175 -0.6 -0.17 -1.34a3.5 3.5 0 0 1 0.17 -1.32q0.165 -0.59 0.47 -1c0.305 -0.41 0.45 -0.48 0.73 -0.63a2 2 0 0 1 0.96 -0.22 2 2 0 0 1 1.68 0.85 3 3 0 0 1 0.48 1q0.16 0.585 0.16 1.32a4 4 0 0 1 -0.64 2.36q-0.305 0.425 -0.73 0.65a1.6 1.6 0 0 1 -0.95 0.23m5.06 -7.14v7.87h0.95v-4.12q-0.005 -0.62 -0.04 -1.24l-0.09 -1.22h0.04l0.86 1.62 2.85 4.96h1.03v-7.87h-0.94v4.07q0 0.615 0.04 1.26l0.08 1.24h-0.05l-0.85 -1.63 -2.85 -4.94zm10.19 0v7.87h2.51q0.655 0 1.21 -0.14a3 3 0 0 0 0.95 -0.44 2 2 0 0 0 0.61 -0.72 2.25 2.25 0 0 0 0.21 -1q0 -0.825 -0.48 -1.29a2.4 2.4 0 0 0 -1.34 -0.6v-0.05a1.7 1.7 0 0 0 1.37 -1.71 1.8 1.8 0 0 0 -0.2 -0.88 1.5 1.5 0 0 0 -0.55 -0.6 2.5 2.5 0 0 0 -0.85 -0.33 5 5 0 0 0 -1.1 -0.11zm2.16 3.36h-1.17v-2.57h1.22q0.915 0 1.38 0.28c0.465 0.28 0.46 0.5 0.46 0.93q0 0.665 -0.43 1.01 -0.445 0.35 -1.46 0.35m0.2 3.72h-1.37v-2.98h1.37a3.15 3.15 0 0 1 1.6 0.34q0.55 0.345 0.55 1.08 0 0.8 -0.56 1.18a2.85 2.85 0 0 1 -1.59 0.38m8.04 -2.41h-2.36l0.37 -1.2q0.21 -0.66 0.41 -1.32a35 35 0 0 0 0.37 -1.34h0.05q0.19 0.69 0.38 1.34 0.2 0.66 0.41 1.32zm0.25 0.8 0.75 2.4h1.07l-2.67 -7.87h-1.13l-2.66 7.87h1.02l0.76 -2.4zm3.93 -1.74v-2.93h1.32a2.7 2.7 0 0 1 1.41 0.31q0.5 0.32 0.5 1.1 0 0.765 -0.5 1.14a2.3 2.3 0 0 1 -1.41 0.38zm3.32 4.14h1.13l-1.99 -3.43a2.5 2.5 0 0 0 1.28 -0.76q0.48 -0.555 0.48 -1.47a2.5 2.5 0 0 0 -0.2 -1.04 2 2 0 0 0 -0.57 -0.68 2.5 2.5 0 0 0 -0.88 -0.38 5 5 0 0 0 -1.11 -0.11h-2.46v7.87h1v-3.32h1.43zm3.65 -4.14v-2.93h1.32q0.925 0.005 1.42 0.31 0.485 0.32 0.49 1.1 -0.005 0.765 -0.49 1.14a2.3 2.3 0 0 1 -1.42 0.38zm3.32 4.14h1.13l-1.99 -3.43a2.5 2.5 0 0 0 1.28 -0.76q0.48 -0.555 0.48 -1.47 0.005 -0.62 -0.2 -1.04c-0.205 -0.42 -0.33 -0.5 -0.57 -0.68s-0.54 -0.3 -0.88 -0.38a5 5 0 0 0 -1.11 -0.11h-2.46v7.87h1v-3.32h1.43zm5.88 -3.2h-2.36l0.37 -1.2a36.55 36.55 0 0 0 0.78 -2.66h0.05l0.38 1.34q0.2 0.66 0.41 1.32zm0.26 0.8 0.74 2.4h1.07l-2.67 -7.87h-1.12l-2.67 7.87h1.02l0.76 -2.4zm2.92 -5.47v7.87h0.95v-4.12q0 -0.62 -0.04 -1.24l-0.09 -1.22h0.05l0.85 1.62 2.86 4.96h1.03v-7.87h-0.95v4.07q0 0.615 0.04 1.26c0.04 0.645 0.06 0.84 0.08 1.24h-0.05l-0.85 -1.63 -2.84 -4.94zm8.34 3.9q0 -0.735 0.17 -1.32a2.5 2.5 0 0 1 0.48 -1 1.985 1.985 0 0 1 1.68 -0.85q0.525 0 0.96 0.22 0.42 0.225 0.73 0.63 0.3 0.41 0.47 1c0.17 0.59 0.17 0.83 0.17 1.32q0 0.755 -0.17 1.36c-0.17 0.605 -0.27 0.75 -0.47 1.04a2 2 0 0 1 -0.73 0.66 2 2 0 0 1 -0.96 0.23 2 2 0 0 1 -1.68 -0.89q-0.315 -0.44 -0.48 -1.04a4 4 0 0 1 -0.17 -1.36m5.87 5.76 -0.19 -0.78a3 3 0 0 1 -1.98 -0.13q-0.51 -0.255 -0.78 -0.78a3.15 3.15 0 0 0 2.02 -1.29 4 4 0 0 0 0.57 -1.23q0.195 -0.7 0.19 -1.55 0 -0.94 -0.24 -1.69a4 4 0 0 0 -0.7 -1.27 3 3 0 0 0 -1.07 -0.8 3.375 3.375 0 0 0 -2.72 -0.01 3 3 0 0 0 -1.06 0.8 3.5 3.5 0 0 0 -0.69 1.27q-0.25 0.75 -0.25 1.7 0 0.86 0.21 1.58 0.2 0.71 0.58 1.24c0.38 0.53 0.55 0.63 0.9 0.85q0.535 0.325 1.18 0.41a3.15 3.15 0 0 0 1.08 1.34q0.74 0.515 1.82 0.52 0.355 0 0.65 -0.06t0.48 -0.12m1.49 -9.66v4.62q0 0.945 0.22 1.59a2.5 2.5 0 0 0 0.59 1.05q0.375 0.4 0.9 0.58c0.525 0.18 0.72 0.17 1.12 0.17s0.77 -0.05 1.12 -0.17a2.2 2.2 0 0 0 0.89 -0.58q0.375 -0.39 0.6 -1.05 0.21 -0.645 0.21 -1.59v-4.62h-0.96v4.64q0 0.71 -0.14 1.19 -0.15 0.48 -0.4 0.77a1.1 1.1 0 0 1 -0.59 0.41 2 2 0 0 1 -0.73 0.13 2 2 0 0 1 -0.72 -0.13q-0.335 -0.12 -0.58 -0.41c-0.245 -0.29 -0.29 -0.45 -0.39 -0.77s-0.14 -0.72 -0.14 -1.19v-4.64zm7.78 0v7.87h0.99v-7.87zm3.15 0v7.87h4.44v-0.85h-3.44v-7.02zm5.83 0v7.87h4.44v-0.85h-3.44v-7.02zm9.22 4.67h-2.36l0.37 -1.2q0.21 -0.66 0.41 -1.32 0.185 -0.65 0.37 -1.34h0.05q0.18 0.695 0.38 1.34 0.19 0.66 0.41 1.32zm0.25 0.8 0.75 2.4h1.06l-2.66 -7.87h-1.13l-2.66 7.87h1.02l0.75 -2.4z"/>
    </g>
  </g>
</svg>
