<?xml version="1.0" encoding="utf-8"?>
<!-- Generator: Adobe Illustrator 24.1.1, SVG Export Plug-In . SVG Version: 6.00 Build 0)  -->
<svg version="1.1" id="Capa_1" xmlns="http://www.w3.org/2000/svg" xmlns:xlink="http://www.w3.org/1999/xlink" x="0px" y="0px"
	 viewBox="0 0 400 121" style="enable-background:new 0 0 400 121;" xml:space="preserve">
<style type="text/css">
	.st0{fill:#102335;}
</style>
<g>
	<path class="st0" d="M119.84,79.13c0,5.34-4.09,9.22-9.78,9.22h-9.57c-2.11,0-3.66-1.51-3.66-3.62V60.82
		c0-2.11,1.51-3.53,3.58-3.53h7.41c5.69,0,9.44,3.23,9.44,8.15c0,0.95-0.17,1.85-0.47,2.76c-0.56,1.59-1.25,2.24-3.19,3.32
		C117.64,72.45,119.84,75.12,119.84,79.13 M103.81,75.47v6.72h5.39c1.9,0,3.49-1.47,3.49-3.28c0-1.94-1.55-3.45-3.45-3.45H103.81z
		 M103.85,63.44v5.99h3.28c1.81,0,3.28-1.34,3.28-2.97c0-1.68-1.42-3.02-3.19-3.02H103.85z"/>
	<path class="st0" d="M128.11,82.49l-1.16,3.92c-0.43,1.47-1.72,2.41-3.36,2.41c-1.94,0-3.45-1.51-3.45-3.4
		c0-0.56,0.09-1.16,0.3-1.72l8.58-22.93c0.99-2.63,2.67-3.88,5.09-3.88c2.37,0,4.14,1.38,5.04,3.88l8.45,22.97
		c0.26,0.69,0.35,1.38,0.35,2.07c0,1.59-1.51,2.97-3.45,2.97c-1.51,0-2.71-0.9-3.19-2.37l-1.25-3.92H128.11z M134.1,64.13
		l-4.01,12.07l7.84,0.04L134.1,64.13z"/>
	<path class="st0" d="M156.77,75.86v9.44c0,1.9-1.51,3.45-3.45,3.45c-1.94,0-3.58-1.59-3.58-3.58V60.94c0-2.07,1.55-3.62,3.58-3.62
		h8.02c6.29,0,10.73,3.96,10.73,9.65c0,2.97-1.25,5.6-3.45,7.11c-1.08,0.73-1.9,1.03-3.96,1.38l6.9,7.54c0.56,0.6,0.9,1.38,0.9,2.24
		c0,1.94-1.59,3.49-3.58,3.49c-0.95,0-2.03-0.56-2.76-1.46L156.77,75.86z M156.81,63.7v7.02h4.57c2.07,0,3.71-1.55,3.71-3.58
		c0-1.9-1.68-3.45-3.79-3.45H156.81z"/>
	<path class="st0" d="M181.72,75.86v9.44c0,1.9-1.51,3.45-3.45,3.45c-1.94,0-3.58-1.59-3.58-3.58V60.94c0-2.07,1.55-3.62,3.58-3.62
		h8.02c6.29,0,10.73,3.96,10.73,9.65c0,2.97-1.25,5.6-3.45,7.11c-1.08,0.73-1.9,1.03-3.96,1.38l6.9,7.54c0.56,0.6,0.9,1.38,0.9,2.24
		c0,1.94-1.59,3.49-3.58,3.49c-0.95,0-2.03-0.56-2.76-1.46L181.72,75.86z M181.76,63.7v7.02h4.57c2.07,0,3.71-1.55,3.71-3.58
		c0-1.9-1.68-3.45-3.79-3.45H181.76z"/>
	<path class="st0" d="M205.81,82.49l-1.16,3.92c-0.43,1.47-1.72,2.41-3.36,2.41c-1.94,0-3.45-1.51-3.45-3.4
		c0-0.56,0.09-1.16,0.3-1.72l8.58-22.93c0.99-2.63,2.67-3.88,5.09-3.88c2.37,0,4.14,1.38,5.04,3.88l8.45,22.97
		c0.26,0.69,0.35,1.38,0.35,2.07c0,1.59-1.51,2.97-3.45,2.97c-1.51,0-2.71-0.9-3.19-2.37l-1.25-3.92H205.81z M211.8,64.13
		l-4.01,12.07l7.84,0.04L211.8,64.13z"/>
	<path class="st0" d="M234.3,69.3l0.13,15.99c0,1.9-1.51,3.45-3.45,3.45c-1.94,0-3.53-1.64-3.53-3.62V60.51
		c0-2.03,1.55-3.58,3.49-3.58c1.08,0,1.98,0.56,2.84,1.64l13.92,17.84l-0.13-15.99c0-1.94,1.59-3.53,3.49-3.53
		c1.94,0,3.45,1.6,3.45,3.53v24.87c0,1.98-1.47,3.45-3.53,3.45c-1.08,0-1.94-0.47-2.76-1.51L234.3,69.3z"/>
	<path class="st0" d="M287.61,85.29c0.47,0.43,0.78,1.12,0.78,1.98c0,2.03-1.12,3.15-3.15,3.15c-0.86,0-1.64-0.3-2.15-0.73
		l-3.02-2.72c-3.1,1.6-4.53,1.98-7.63,1.98c-8.84,0-15.17-6.77-15.17-16.16c0-9.48,6.21-16.08,15.21-16.08
		c8.88,0,15.13,6.77,15.13,16.21c0,3.92-0.47,5.73-2.89,9.78L287.61,85.29z M279.16,77.92c1.03-1.64,1.16-2.11,1.16-5.04
		c0-5.95-3.15-9.87-7.89-9.87c-4.7,0-7.89,3.92-7.89,9.78c0,5.99,3.32,10.13,8.06,10.13c0.86,0,1.34-0.17,2.33-0.69l-3.49-3.32
		c-0.6-0.56-0.9-1.51-0.9-2.54c0-1.55,0.9-2.37,2.59-2.37c0.9,0,1.72,0.26,2.28,0.73L279.16,77.92z"/>
	<path class="st0" d="M317.43,75.73c0,7.8-5.47,13.14-13.53,13.14c-3.83,0-7.46-1.38-10.04-3.88c-2.41-2.28-3.53-5.3-3.53-9.27
		V60.56c0-2.03,1.59-3.62,3.49-3.62c1.98,0,3.53,1.6,3.53,3.58v15.04c0,2.28,0.47,3.66,1.64,4.91c1.16,1.25,3.02,2.03,4.91,2.03
		c4.05,0,6.51-2.67,6.51-6.94V60.51c0-1.98,1.6-3.58,3.53-3.58c1.94,0,3.49,1.6,3.49,3.62V75.73z"/>
	<path class="st0" d="M327.94,85.29c0,1.9-1.51,3.45-3.49,3.45c-1.9,0-3.49-1.55-3.49-3.49V60.51c0-1.98,1.6-3.58,3.53-3.58
		c1.94,0,3.45,1.6,3.45,3.58V85.29z"/>
	<path class="st0" d="M338.54,82.02h7.76c1.81,0,3.23,1.38,3.23,3.15c0,1.72-1.42,3.19-3.19,3.19h-11.29c-1.9,0-3.53-1.68-3.53-3.66
		V60.43c0-1.94,1.59-3.49,3.49-3.49c1.98,0,3.53,1.6,3.53,3.49V82.02z"/>
	<path class="st0" d="M357.68,82.02h7.76c1.81,0,3.23,1.38,3.23,3.15c0,1.72-1.42,3.19-3.19,3.19h-11.29c-1.9,0-3.53-1.68-3.53-3.66
		V60.43c0-1.94,1.6-3.49,3.49-3.49c1.98,0,3.53,1.6,3.53,3.49V82.02z"/>
	<path class="st0" d="M375.95,82.49l-1.16,3.92c-0.43,1.47-1.72,2.41-3.36,2.41c-1.94,0-3.45-1.51-3.45-3.4
		c0-0.56,0.09-1.16,0.3-1.72l8.58-22.93c0.99-2.63,2.67-3.88,5.08-3.88c2.37,0,4.14,1.38,5.04,3.88l8.45,22.97
		c0.26,0.69,0.35,1.38,0.35,2.07c0,1.59-1.51,2.97-3.45,2.97c-1.51,0-2.71-0.9-3.19-2.37l-1.25-3.92H375.95z M381.94,64.13
		l-4.01,12.07l7.84,0.04L381.94,64.13z"/>
	<path class="st0" d="M100.69,48.63l-1.49,3.92c-0.24,0.59-0.64,0.91-1.2,0.91c-0.7,0-1.17-0.53-1.17-1.17
		c0-0.26,0.03-0.47,0.12-0.73l6.73-18.15c0.44-1.17,0.91-1.55,1.79-1.55c1.08,0,1.55,0.35,1.99,1.55l6.7,18.15
		c0.09,0.26,0.15,0.5,0.15,0.76c0,0.67-0.5,1.14-1.17,1.14c-0.59,0-1-0.32-1.23-0.91l-1.46-3.92H100.69z M105.55,34.87l-4.13,11.53
		h8.28L105.55,34.87z"/>
	<path class="st0" d="M119.86,50.83h5.5c0.73,0,1.35,0.5,1.35,1.14c0,0.67-0.58,1.2-1.23,1.2h-6.65c-0.88,0-1.49-0.64-1.49-1.49
		V33.14c0-0.73,0.56-1.35,1.29-1.35c0.7,0,1.23,0.61,1.23,1.32V50.83z"/>
	<path class="st0" d="M141.25,49.57c0.38-0.23,0.64-0.35,0.88-0.35c0.64,0,1.17,0.53,1.17,1.23c0,0.47-0.26,0.88-0.79,1.29
		c-1.43,1.11-3.48,1.73-5.65,1.73c-5.62,0-9.49-4.33-9.49-10.71c0-6.5,3.78-11.01,9.31-11.01c1.61,0,3.16,0.41,4.39,1.11
		c1.14,0.67,1.76,1.43,1.76,2.11c0,0.62-0.53,1.17-1.08,1.17c-0.32,0-0.61-0.12-1-0.41c-0.53-0.38-0.82-0.59-0.88-0.64
		c-0.85-0.59-2.17-0.97-3.28-0.97c-3.84,0-6.56,3.51-6.56,8.55c0,5.06,2.72,8.43,6.82,8.43c1.32,0,2.63-0.38,3.54-0.97L141.25,49.57
		z"/>
	<path class="st0" d="M149.17,48.63l-1.49,3.92c-0.24,0.59-0.64,0.91-1.2,0.91c-0.7,0-1.17-0.53-1.17-1.17
		c0-0.26,0.03-0.47,0.12-0.73l6.73-18.15c0.44-1.17,0.91-1.55,1.79-1.55c1.08,0,1.55,0.35,1.99,1.55l6.7,18.15
		c0.09,0.26,0.15,0.5,0.15,0.76c0,0.67-0.5,1.14-1.17,1.14c-0.59,0-1-0.32-1.23-0.91l-1.46-3.92H149.17z M154.03,34.87l-4.13,11.53
		h8.28L154.03,34.87z"/>
	<path class="st0" d="M168.34,50.83h5.5c0.73,0,1.35,0.5,1.35,1.14c0,0.67-0.58,1.2-1.23,1.2h-6.65c-0.88,0-1.49-0.64-1.49-1.49
		V33.14c0-0.73,0.56-1.35,1.29-1.35c0.7,0,1.23,0.61,1.23,1.32V50.83z"/>
	<path class="st0" d="M179.26,53.17c-0.85,0-1.38-0.47-1.38-1.23l0.03-18.65c0-0.67,0.55-1.23,1.26-1.23h5.47
		c5.36,0,9.07,4.33,9.07,10.51c0,6.38-3.63,10.6-9.19,10.6H179.26z M180.4,34.35v16.54h3.98c4.07,0,6.62-3.22,6.62-8.34
		c0-4.89-2.66-8.2-6.53-8.2H180.4z"/>
	<path class="st0" d="M198.98,29.78c-0.12,0.03-0.21,0.06-0.32,0.06c-0.67,0-1.32-0.47-1.32-1.03c0-0.56,0.32-1.05,0.79-1.23
		l4.16-1.61c0.12-0.06,0.23-0.06,0.35-0.06c0.67,0,1.26,0.44,1.26,0.94c0,0.61-0.29,1.08-0.76,1.26L198.98,29.78z M200.06,52.17
		c0,0.7-0.56,1.29-1.23,1.29c-0.73,0-1.29-0.59-1.29-1.29V33.14c0-0.7,0.56-1.32,1.29-1.32c0.67,0,1.23,0.61,1.23,1.32V52.17z"/>
	<path class="st0" d="M206.99,48.63l-1.49,3.92c-0.24,0.59-0.64,0.91-1.2,0.91c-0.7,0-1.17-0.53-1.17-1.17
		c0-0.26,0.03-0.47,0.12-0.73l6.73-18.15c0.44-1.17,0.91-1.55,1.79-1.55c1.08,0,1.55,0.35,1.99,1.55l6.7,18.15
		c0.09,0.26,0.15,0.5,0.15,0.76c0,0.67-0.5,1.14-1.17,1.14c-0.59,0-1-0.32-1.23-0.91l-1.46-3.92H206.99z M211.85,34.87l-4.13,11.53
		h8.28L211.85,34.87z"/>
	<path class="st0" d="M234.38,53.17c-0.85,0-1.38-0.47-1.38-1.23l0.03-18.65c0-0.67,0.55-1.23,1.26-1.23h5.47
		c5.36,0,9.07,4.33,9.07,10.51c0,6.38-3.63,10.6-9.19,10.6H234.38z M235.52,34.35v16.54h3.98c4.07,0,6.62-3.22,6.62-8.34
		c0-4.89-2.66-8.2-6.53-8.2H235.52z"/>
	<path class="st0" d="M255.22,50.86h6.44c0.62,0,1.17,0.5,1.17,1.14c0,0.64-0.5,1.17-1.17,1.17h-7.7c-0.79,0-1.29-0.53-1.29-1.4
		V33.38c0-0.76,0.56-1.32,1.32-1.32h7.38c0.64,0,1.17,0.53,1.17,1.17c0,0.64-0.53,1.17-1.2,1.17h-6.09v7.06h5.77
		c0.67,0,1.2,0.53,1.2,1.14c0,0.67-0.53,1.2-1.17,1.2h-5.83V50.86z"/>
	<path class="st0" d="M81.94,79.58c-4.83,9.89-16.1,11.34-19.01,11.81c0.35-0.36,0.6-0.7,0.78-0.99c0.7-1.12,0.87-2.4,0.54-3.5
		c1.9-0.16,4.19-0.58,6.92-2.28c8.6-5.38,5.69-11.9,3.33-11.97c0.33-0.11,0.68-0.17,1.01-0.1c0.91,0.13,1.74,0.64,2.28,1.36
		c0.57,0.72,0.8,1.65,0.81,2.6c0.05,0.95-0.24,1.9-0.49,2.85c0.23-0.43,0.47-0.87,0.64-1.35c0.14-0.48,0.3-0.97,0.31-1.49
		c0.11-1.01-0.13-2.12-0.78-2.97c-0.65-0.84-1.65-1.42-2.73-1.46c-0.52-0.04-1.09,0.1-1.51,0.42c-0.21,0.13-0.35,0.33-0.46,0.54
		c-0.56,0.69-0.33,2.68,0.62,3.86c-1.85-0.19-2.35-2.05-2.35-2.05l-0.01,1.42c0,0.02-0.01,1.63-0.6,3.21
		c-0.8,2.14-2.17,3.13-4.18,3.02c-1.28-0.06-3.03-0.78-3.01-2.88c0.2,0.21,0.43,0.39,0.69,0.52c0.65,0.35,1.41,0.45,2.11,0.33
		c1.4-0.23,2.54-1.36,2.79-2.67c-0.41,1.28-1.61,2.16-2.85,2.22c-0.62,0.04-1.22-0.12-1.7-0.46c-0.34-0.24-0.6-0.57-0.78-0.93v-0.01
		c0.62-0.16,1.16-0.62,1.29-1.52c0.11-0.01,0.23-0.04,0.34-0.06c0.51-0.12,1.01-0.37,1.38-0.76c0.39-0.37,0.59-0.88,0.65-1.38
		c0.08-0.5,0.02-0.98-0.06-1.46c0,0.48-0.01,0.97-0.16,1.41c-0.13,0.45-0.39,0.83-0.74,1.09c-0.34,0.26-0.76,0.4-1.18,0.42h-0.06
		h-0.02c-0.13-0.01-0.31-0.02-0.56-0.04c-0.66-0.04-2.44-1.13-1.04-3.66c0.24,0.31,0.59,0.49,1,0.52h0.07c0.8,0,1.15-0.57,1.78-1.61
		c0.23-0.37,0.49-0.81,0.83-1.32c0.24-0.36,1-1.45,2.23-2.43l0.2-0.16c1.13-0.86,2.62-1.57,4.39-1.57c1.28,0,2.6,0.37,3.91,1.13
		C81.67,69.03,84.13,75.05,81.94,79.58"/>
	<path class="st0" d="M41.27,66.48v0.48c-1.91,0.01-3.8,0.04-5.71,0.08l0.23-0.35C37.61,66.6,39.44,66.53,41.27,66.48"/>
	<polygon class="st0" points="40.23,80.86 40.11,81 39.97,80.87 39.97,80.81 39.93,80.84 39.78,80.71 39.78,80.67 39.65,80.53 
		39.65,80.52 39.52,80.39 39.5,80.07 40.2,80.07 	"/>
	<path class="st0" d="M61.12,39.08c0,0.11-0.04,0.23-0.08,0.37L61,39.53l-0.54-0.23c0.06-0.13,0.08-0.24,0.06-0.34
		c-0.01-0.1-0.07-0.16-0.19-0.21l-0.16-0.05l-0.13,0.04l-0.1,0.08l-0.06,0.12l-0.04,0.24L60,39.44l0.35,0.37l0.21,0.25l0.1,0.24
		v0.23l-0.07,0.24c-0.13,0.29-0.3,0.47-0.53,0.53c-0.23,0.06-0.49,0.04-0.81-0.1c-0.31-0.13-0.51-0.3-0.59-0.5
		c-0.06-0.2-0.06-0.43,0.05-0.69l0.06-0.11l0.56,0.23l-0.04,0.08l-0.06,0.19l0.01,0.16l0.07,0.13l0.17,0.11l0.27,0.01
		c0.1-0.02,0.16-0.1,0.22-0.22l0.04-0.17l-0.04-0.16l-0.11-0.17l-0.19-0.19l-0.27-0.28l-0.16-0.27l-0.04-0.29
		c0.01-0.1,0.04-0.21,0.08-0.31c0.12-0.28,0.29-0.46,0.49-0.52c0.22-0.07,0.45-0.06,0.72,0.06c0.12,0.05,0.23,0.11,0.33,0.18
		l0.22,0.25C61.09,38.86,61.12,38.97,61.12,39.08"/>
	<polygon class="st0" points="31.59,61.84 31.59,61.87 32.04,61.91 32.06,61.88 	"/>
	<path class="st0" d="M34.59,69.46c-1.06-0.07-2.09,1.09-2.27,2.56c-0.19,1.46,0.52,2.64,1.56,2.68c1.01,0.04,2-1.08,2.21-2.49
		C36.3,70.78,35.64,69.54,34.59,69.46 M34.8,70.15c0.12,0.06,0.23,0.15,0.33,0.27c0.12,0.14,0.2,0.34,0.28,0.54l-0.6,0.45
		l-0.16-0.19L34.8,70.15z M34.48,70.09l-0.16,1l-0.29,0.08l-0.4-0.65C33.9,70.25,34.2,70.09,34.48,70.09 M33.43,70.79l0.35,0.59
		c-0.12,0.14-0.21,0.33-0.25,0.53l-0.52-0.17C33.11,71.37,33.25,71.04,33.43,70.79 M32.94,72.11l0.01-0.05l0.54,0.18
		c0,0.11,0.01,0.22,0.04,0.31l-0.51,0.66C32.92,72.89,32.89,72.51,32.94,72.11 M33.93,74.07h-0.04c-0.22,0-0.41-0.11-0.58-0.3
		l-0.15-0.22l0.52-0.69l0.24,0.17V74.07z M34.05,72.37v-0.02h-0.01l-0.05-0.27c0.02-0.21,0.16-0.34,0.27-0.34h0.01l0.1,0.05
		l0.04,0.05h-0.01l0.01,0.02l0.02,0.23c-0.02,0.19-0.16,0.34-0.27,0.34L34.05,72.37z M34.24,74v-0.95l0.28-0.15l0.37,0.59
		C34.7,73.74,34.47,73.92,34.24,74 M35.08,73.21l-0.35-0.57l0.08-0.16l0.53,0.15C35.28,72.84,35.19,73.04,35.08,73.21 M35.46,72.13
		l-0.02,0.18l-0.53-0.13l0.01-0.05c0.02-0.14,0.01-0.29-0.01-0.41l0.57-0.42C35.51,71.56,35.51,71.84,35.46,72.13"/>
	<path class="st0" d="M65.8,41.26c-0.08-0.15-0.22-0.28-0.41-0.4c-0.2-0.12-0.37-0.18-0.53-0.19c-0.16,0-0.3,0.04-0.44,0.12
		c-0.13,0.07-0.27,0.18-0.39,0.35c-0.12,0.14-0.24,0.31-0.36,0.52c-0.12,0.19-0.22,0.39-0.3,0.54c-0.1,0.18-0.15,0.35-0.16,0.51
		c-0.01,0.16,0.02,0.29,0.1,0.43c0.08,0.13,0.22,0.25,0.41,0.39c0.19,0.12,0.37,0.18,0.52,0.21c0.16,0,0.29-0.04,0.43-0.11
		c0.15-0.08,0.27-0.21,0.39-0.36c0.12-0.15,0.23-0.33,0.36-0.52c0.12-0.19,0.23-0.37,0.31-0.56c0.08-0.17,0.13-0.34,0.15-0.49
		C65.89,41.54,65.86,41.4,65.8,41.26 M65.29,41.65c-0.01,0.1-0.06,0.21-0.12,0.33c-0.07,0.12-0.16,0.28-0.27,0.45
		c-0.11,0.18-0.2,0.33-0.28,0.44c-0.1,0.12-0.17,0.2-0.25,0.26l-0.2,0.1l-0.22-0.06l-0.15-0.17l-0.01-0.24
		c0.02-0.08,0.06-0.19,0.13-0.31c0.07-0.13,0.16-0.28,0.27-0.46c0.11-0.17,0.2-0.31,0.29-0.42c0.08-0.12,0.16-0.21,0.24-0.27
		l0.2-0.1l0.22,0.06l0.14,0.17V41.65z"/>
	<polygon class="st0" points="32.26,41.54 30.69,42.3 29.35,39.58 30.87,38.84 31.1,39.28 30.12,39.77 30.44,40.41 31.35,39.96 
		31.58,40.41 30.67,40.87 31.03,41.59 32.03,41.09 	"/>
	<polygon class="st0" points="58.57,37.63 58.41,38.1 57.78,37.9 56.98,40.3 56.4,40.1 57.2,37.7 56.56,37.5 56.72,37.03 	"/>
	<path class="st0" d="M58.79,72.02c-0.18-1.47-1.21-2.63-2.27-2.56c-1.04,0.07-1.7,1.32-1.5,2.75c0.2,1.41,1.19,2.52,2.22,2.49
		C58.29,74.67,58.99,73.48,58.79,72.02 M58.11,71.75l-0.51,0.17c-0.06-0.21-0.15-0.39-0.27-0.53l0.35-0.59
		C57.86,71.04,58.02,71.37,58.11,71.75 M57.48,70.53l-0.39,0.65l-0.3-0.08l-0.16-1C56.91,70.09,57.21,70.25,57.48,70.53
		 M55.99,70.42c0.11-0.12,0.22-0.21,0.33-0.27l0.17,1.06l-0.17,0.19l-0.59-0.45C55.79,70.75,55.87,70.56,55.99,70.42 M55.66,72.13
		c-0.05-0.29-0.05-0.57,0-0.83l0.56,0.42c-0.02,0.12-0.04,0.27-0.01,0.41l0.01,0.05l-0.52,0.13L55.66,72.13z M55.76,72.63l0.54-0.15
		l0.07,0.16l-0.35,0.57C55.92,73.04,55.84,72.84,55.76,72.63 M56.87,74c-0.23-0.08-0.45-0.26-0.65-0.51l0.37-0.59l0.28,0.15V74z
		 M57.08,72.35l-0.01,0.02l-0.11,0.06c-0.11,0-0.24-0.14-0.27-0.34l0.02-0.23l0.01-0.03l0.02-0.05l0.1-0.05h0.01
		c0.11,0,0.24,0.13,0.27,0.34L57.08,72.35z M57.8,73.77c-0.17,0.19-0.36,0.3-0.58,0.3h-0.04v-1.04l0.24-0.17l0.52,0.69L57.8,73.77z
		 M58.09,73.22l-0.51-0.66c0.02-0.1,0.05-0.21,0.05-0.31l0.53-0.18l0.01,0.05C58.23,72.51,58.2,72.89,58.09,73.22"/>
	<polygon class="st0" points="32.51,61.91 32.49,61.95 32.66,61.97 32.69,61.93 	"/>
	<polygon class="st0" points="34.09,62.04 34.06,62.09 34.9,62.16 34.93,62.11 	"/>
	<path class="st0" d="M41.72,86.92h-0.91c0-0.27,0.19-0.47,0.42-0.47h0.05C41.53,86.45,41.72,86.65,41.72,86.92"/>
	<polygon class="st0" points="33.42,38.44 33.41,38.44 33.82,40.89 33.37,41.07 31.97,39.02 31.96,39.03 32.86,41.26 32.34,41.48 
		31.21,38.67 32.06,38.33 33.25,40.15 33.26,40.15 32.86,38 33.7,37.67 34.84,40.47 34.32,40.68 	"/>
	<polygon class="st0" points="32.09,61.88 32.07,61.91 32.45,61.95 32.48,61.91 	"/>
	<polygon class="st0" points="59.33,37.92 58.25,40.76 57.7,40.55 58.76,37.71 	"/>
	<polygon class="st0" points="39.3,62.06 37.15,61.88 37.15,61.85 39.29,62.01 	"/>
	<path class="st0" d="M33.15,66.84l-0.22,0.29c-3.17,0.1-6.36,0.23-9.55,0.41v-0.11C26.65,67.25,29.91,67.04,33.15,66.84"/>
	<path class="st0" d="M58.55,74.4l-0.7,0.22c0.76-0.34,1.23-1.39,1.08-2.6c-0.22-1.76-1.36-2.52-2.09-2.61h0.06
		c1.07-0.08,2.16,1.13,2.35,2.61C59.39,73.06,59.12,73.95,58.55,74.4"/>
	<polygon class="st0" points="39.35,62.46 39.35,62.49 39.23,62.49 37.04,62.3 37.04,62.24 	"/>
	<path class="st0" d="M44.9,66.42v0.53h-2.63v-0.49C43.15,66.43,44.02,66.42,44.9,66.42"/>
	<path class="st0" d="M42.14,68.45l-0.04,0.17h-0.65l-0.04-0.17c0-0.19,0.12-0.34,0.29-0.37c-0.02-0.1-0.11-0.47-0.11-1.03
		c0-0.98-0.04-1.16,0.18-1.16c0.22,0,0.18,0.16,0.18,1.16c0,0.55-0.08,0.93-0.11,1.03C42.01,68.11,42.14,68.26,42.14,68.45"/>
	<polygon class="st0" points="39.29,62 37.17,61.83 37.17,61.8 39.27,61.95 	"/>
	<polygon class="st0" points="39.27,61.94 37.2,61.78 37.2,61.75 39.11,61.88 37.22,61.7 37.22,61.64 38.05,61.71 39.21,61.8 	"/>
	<polygon class="st0" points="39.2,61.75 37.25,61.6 37.25,61.58 39.18,61.7 	"/>
	<path class="st0" d="M28.98,77l-0.19,0.66l-0.23-0.04c-0.16-0.05-0.31-0.1-0.47-0.16l-0.28-0.1c-0.07-0.07,0.12-0.53,0.19-0.68
		L28.98,77z"/>
	<path class="st0" d="M42.68,71.35c0.12-0.14,0.18-0.28,0.18-0.28s0.39-2.08,0.44-2.39h-1.23c0.2,0.1,0.35,0.3,0.35,0.55
		c0,0.33-0.25,0.59-0.56,0.59h-0.17c-0.3,0-0.56-0.27-0.56-0.59c0-0.25,0.14-0.46,0.35-0.55h-1.23c0.05,0.31,0.44,2.39,0.44,2.39
		s0.06,0.13,0.18,0.28l0.02,0.36c0,0.4,0.08,0.76,0.2,1.04l-0.25-0.1l0.11,0.99l0.75,0.22h0.14l0.75-0.22l0.11-0.99l-0.25,0.1
		c0.12-0.28,0.21-0.64,0.21-1.04L42.68,71.35z M42.5,71.7c0,0.47-0.11,0.88-0.29,1.15l-0.22,0.08l-0.22,0.6l-0.22-0.6l-0.22-0.08
		c-0.18-0.26-0.29-0.68-0.29-1.15l-0.01-0.19c0.17,0.14,0.41,0.28,0.74,0.28c0.33,0,0.57-0.13,0.74-0.28L42.5,71.7z"/>
	<polygon class="st0" points="64.13,40.15 62.73,42.86 62.23,42.59 63.35,40.44 63.33,40.44 61.75,42.35 61.33,42.12 61.96,39.73 
		60.83,41.87 60.34,41.61 61.74,38.92 62.54,39.34 61.94,41.44 61.96,41.44 63.32,39.74 	"/>
	<polygon class="st0" points="36.91,62.27 36.9,62.34 34.93,62.16 34.96,62.11 	"/>
	<path class="st0" d="M32.22,74.47c0,0-2.08,2.21-2.21,2.35c-0.29,0.33-0.64,0.83-1.13,0.84l0.2-0.69l2.45-2.72v-0.01
		c-0.27-0.45-0.4-0.78-0.47-1.03l0.12-0.08l0.02-0.18l-0.01-0.18l0.17-0.23l0.12,0.01C31.44,73.79,32.22,74.47,32.22,74.47"/>
	<path class="st0" d="M33.27,74.62l-0.7-0.22c-0.57-0.45-0.85-1.34-0.71-2.38c0.19-1.47,1.28-2.69,2.35-2.61h0.06
		c-0.71,0.08-1.87,0.85-2.09,2.61C32.03,73.23,32.5,74.28,33.27,74.62"/>
	<path class="st0" d="M42.09,69.23c0,0.18-0.14,0.33-0.31,0.33c-0.17,0-0.31-0.14-0.31-0.33c0-0.18,0.15-0.33,0.31-0.33
		C41.94,68.91,42.09,69.05,42.09,69.23"/>
	<polygon class="st0" points="32.72,61.93 32.69,61.97 33.19,62.01 33.22,61.97 	"/>
	<rect x="40.77" y="86.96" class="st0" width="0.98" height="0.12"/>
	<path class="st0" d="M42.74,86.92h-0.9c0-0.27,0.19-0.47,0.43-0.47h0.04C42.55,86.45,42.74,86.65,42.74,86.92"/>
	<rect x="41.8" y="86.96" class="st0" width="0.98" height="0.12"/>
	<path class="st0" d="M60.7,73.99l-0.99,0.23c0.25-0.41,0.37-0.75,0.43-0.99l0.11-0.04l0.04-0.01l0.21-0.06l0.19-0.1L60.7,73.99z"/>
	<path class="st0" d="M63.06,76.61l-0.97,0.29l-2.32-2.58l0.94-0.22c0.07,0.18,0.22,0.36,0.34,0.51
		C61.68,75.39,62.37,75.91,63.06,76.61"/>
	<path class="st0" d="M61.79,71.78l-0.06,0.12l-0.04,0.02l-0.17,0.25l-0.17,0.2c-0.07,0.12-0.05,0.21,0.06,0.24
		c0.1,0.02,0.12,0.12,0.07,0.24l-0.27,0.2C61.09,73.1,61,73.04,61,72.94c-0.01-0.12-0.08-0.16-0.23-0.11l-0.3,0.12l-0.21,0.07
		l-0.05,0.02l-0.13,0.04l-0.04-0.1l0.01-0.05l0.05-0.16c-0.11-0.13-0.21-0.27-0.31-0.41l-0.18,0.02l0.02-0.14
		c-0.11-0.02-0.11-0.04-0.06-0.16v-0.04l-0.08-0.13l-0.07-0.1c-0.21-1.15-0.95-2.15-1.81-2.49l-0.01-0.03L57.37,69l-0.05-0.01
		L57.18,69l0.02-0.13l-0.02-0.16c-0.07-0.08-1.17-1.61-1.62-2.22l-0.06-0.03l-0.07-0.05l-0.11-0.01l0.01-0.12l-0.01-0.11l-0.01-0.05
		l-0.05-0.06l0.02-0.14c0.02-0.16,0.28-0.4,0.51-0.53c0.33-0.19,0.45-0.07,0.52-0.12l0.05,0.05l0.07,0.04l0.07,0.05h0.11l-0.04,0.13
		l0.04,0.1l0.01,0.02c0.17,0.22,0.35,0.42,0.51,0.63c0.41,0.51,0.82,1.01,1.22,1.52l0.01,0.01c0.11-0.05,0.15-0.04,0.13,0.06
		c0.15-0.04,0.18,0.03,0.08,0.16v0.05l0.24,0.3l0.04,0.01l0.1,0.07c0.14-0.02,0.18,0.02,0.1,0.16v0.02c0.13,0.19,0.27,0.36,0.4,0.54
		l0.22,0.24l0.02,0.04c0.41,0.49,0.81,1,1.21,1.5l0.13,0.05l0.08,0.11l0.14,0.02l-0.07,0.16c0.11,0.15,0.21,0.28,0.31,0.42
		l0.17-0.01h0.04L61.79,71.78z"/>
	<polygon class="st0" points="44.04,80.07 44.03,80.39 43.9,80.52 43.9,80.53 43.76,80.67 43.76,80.71 43.63,80.83 43.57,80.81 
		43.57,80.87 43.44,81 43.32,80.86 43.34,80.07 	"/>
	<polygon class="st0" points="61.3,71.02 61.3,71.02 61.3,71.02 	"/>
	<path class="st0" d="M60.97,73.69h-0.02l-0.01-0.6H61l0.25,0.1c0.2-0.04,0.3-0.23,0.35-0.33c0.06-0.11,0.04-0.25-0.06-0.29
		l0.02-0.08l0.04-0.1l0.13-0.17l0.07-0.08l0.13-0.21l0.04-0.02l0.06-0.12l-0.08-0.06h-0.05l-0.04-0.04c0.01-0.16,0-0.31-0.01-0.48
		l-0.01-0.05l-0.4,0.13l0.06-0.13l-0.16-0.02l-0.05-0.11l0.48-0.17c-0.08-0.35-0.23-0.66-0.4-0.9l-0.34,0.55
		c0.11,0.14,0.2,0.31,0.24,0.52h-0.01l-0.13-0.05c-0.21-0.24-0.4-0.49-0.59-0.74l0.25,0.07l0.37-0.62
		c-0.25-0.27-0.54-0.42-0.81-0.42l0.15,0.93c-0.12-0.16-0.25-0.31-0.37-0.47l-0.06-0.4l-0.17,0.11H59.9l-0.2-0.24l-0.17-0.22
		c0.22-0.18,0.47-0.29,0.75-0.31c1.01-0.06,1.99,1.04,2.17,2.45C62.63,72.52,61.96,73.65,60.97,73.69"/>
	<path class="st0" d="M62.21,73.4l-0.66,0.21c0.74-0.33,1.18-1.33,1.03-2.49c-0.2-1.69-1.3-2.41-1.99-2.49l0.06-0.01
		c1.01-0.07,2.06,1.09,2.24,2.5C63.02,72.11,62.75,72.96,62.21,73.4"/>
	<path class="st0" d="M68.22,67.53v0.13c-3.34-0.21-6.69-0.36-10.03-0.48l-0.21-0.31C61.4,67.07,64.81,67.31,68.22,67.53"/>
	<path class="st0" d="M46.41,67.16l4.97,8.38v0.01l-0.09,0.12h-0.14l-4.82-8.12l0.11,17.57c0,0.11-0.37,0.2-0.54,0.2
		c-0.16,0-0.54-0.1-0.54-0.2l0.12-17.63l-1.76,2.97l0.16-0.77l1.5-2.52l-0.08-0.11l0.15-0.12h0.05l0.19-20.37
		c0-0.11,0.07-0.19,0.23-0.19c0.17,0,0.23,0.08,0.23,0.19v0.25l0.12,11.88l0.07,7.73c2.99,0.02,5.99,0.13,8.98,0.29l0.3,0.39
		c-3.05-0.08-6.11-0.13-9.16-0.14l0.05,0.1L46.41,67.16z"/>
	<path class="st0" d="M59.52,30.59c-0.25,0.31-0.72,0.51-1.05,0.47c-1.21-0.17-1.33-1.5-0.72-2.04c-0.18,0.54,0.14,0.87,0.41,0.82
		c0.48-0.1,0.45-1.39-1.01-1.88c0.04-0.06,0.33-0.43,0.1-1.42C60.5,28.27,59.98,30,59.52,30.59"/>
	<path class="st0" d="M64.87,49.36l-0.24,1.41h-0.35l0.23-1.42c-0.21-0.23-0.37-0.48-0.58-0.71c-0.76-0.78-1.97-1.16-3.05-1.11
		l-1.4,0.19c0-0.08,0.54-3.03-3.27-3.47c-2.41-0.28-3.52,1.28-4.01,2.45l-0.26-0.02c0.34-1.12,1.48-3.08,3.85-3.02
		c3.4,0.1,4.04,2.41,4.04,3.36l0.72-0.11c1.13-0.08,2.22,0.16,3.1,0.91c0.4,0.35,0.75,0.77,1.06,1.22
		C64.76,49.12,64.88,49.26,64.87,49.36"/>
	<path class="st0" d="M63.31,77.37l-0.27,0.1c-0.16,0.06-0.33,0.11-0.48,0.16l-0.23,0.04L62.15,77l0.97-0.3
		C63.19,76.84,63.38,77.3,63.31,77.37"/>
	<path class="st0" d="M62.23,77.67c-0.48-0.01-0.85-0.52-1.13-0.85c-0.13-0.15-2.21-2.35-2.21-2.35s0.79-0.69,0.74-1.91l0.12-0.01
		l0.17,0.23l-0.01,0.18l0.02,0.18l0.12,0.08c-0.06,0.24-0.2,0.58-0.47,1.03l0.01,0.01l2.45,2.72L62.23,77.67z"/>
	<path class="st0" d="M54.27,25.29l-0.05,0.04c-0.51,0.33-0.88,0.83-1.11,1.44C50.72,26.28,47.94,26,45.64,26
		c-2.28,0-5.02,0.28-7.39,0.74c-0.23-0.59-0.6-1.09-1.1-1.41l-0.1-0.06c2.6-0.98,5.24-1.76,5.51-1.92c0.24-0.14,2.79-1.83,3.08-1.83
		s2.84,1.69,3.08,1.83C48.94,23.49,51.65,24.29,54.27,25.29"/>
	<path class="st0" d="M42.65,73.63l-0.01,0.06c0.02-0.02,0.02-0.04,0.04-0.05L42.65,73.63z M43.72,79.53l0.54-0.63
		c0-1.01,0.01-2.39,0-2.79c-0.01-0.64-0.19-1.7-0.19-1.7s-0.11-0.33-0.46-0.44l-0.22-0.07c-0.24,0.42-0.8,1.31-1.33,1.93
		c-0.71,0.83-1.96,1.83-1.96,1.83v-0.89c0,0,0.62-0.47,1.32-1.22c0.52-0.56,1.01-1.46,1.22-1.87l-0.74,0.22l-0.13,0.04l-0.13-0.04
		l-0.74-0.22l-0.01-0.06c-0.23,0.08-0.7,0.26-0.95,0.35l-0.12,0.05l-0.14-5.29l0.02-0.01c0,0,0.17-0.25,0.08-0.72
		c-0.08-0.45-0.23-0.59-0.24-0.76c0,0.17-0.12,0.33-0.17,0.78c-0.05,0.47,0.14,0.71,0.14,0.71v0.35l-3.1,0.07
		c0.3,0.04,0.89,0.4,1.01,0.47c0.64-0.08,2.09-0.08,2.09-0.08v0.06c-0.22-0.02-1.65,0.04-2.09,0.05c-0.36,0.05-1.09,0.35-1.09,0.35
		c0.3,0.02,1,0.3,1.09,0.35c0.51-0.1,2.09-0.13,2.09-0.13v0.05c-0.29,0.01-1.75,0.06-2.09,0.08c-0.11,0.04-0.99,0.3-0.99,0.31
		l3.13-0.03l0.1,3.49c-0.13,0.13-0.18,0.28-0.18,0.28s-0.18,1.06-0.19,1.7c-0.01,0.4,0,1.77,0,2.79l0.54,0.63l0.36-0.63l0.14,0.11
		l-0.47,0.82l-0.58-0.65v0.83h0.97l0.49,6.34l1-0.03v-4.8h0.05v4.8h1l0.49-6.31h0.97v-0.83l-0.57,0.65l-0.48-0.82l0.14-0.11
		L43.72,79.53z M43.28,78.55c0,0-0.95,0.18-1.62,0.18c-0.66,0-1.62-0.12-1.62-0.12v-0.4c0,0,1.07,0.21,1.86,0.13
		c0.77-0.06,1.38-0.23,1.38-0.23V78.55z"/>
	<path class="st0" d="M21.99,67.65c0,0-1.18-1.29-3.07-1.77c5.69-10.78,0.48-16.78,0.47-16.79c3.6,1.14,3.67,6.68,3.67,6.68
		c0.25-3.1-1.38-8.17-4.77-7.09c-1.04,0.33-0.97,1.68-0.1,1.56c-3.03,0.99-3.08-2.85-0.63-3.83c1.62-0.63,2.98-0.24,3.66,0.07
		c-1.34-0.89-3.39-0.72-4.65,0.17c-1.21,0.86-2.78,3.78,2.12,5.78c-2.76,1.46-6.98-1.38-5.61-6.53c0.36-1.38,1.52-2.85,2.74-3.25
		c2.9-0.95,6.37,0.8,8.23,4.39C28.2,55,21.99,67.65,21.99,67.65"/>
	<path class="st0" d="M72.69,52.43c4.9-2,3.33-4.93,2.14-5.78c-1.27-0.89-3.32-1.06-4.65-0.18c0.68-0.3,2.04-0.69,3.65-0.06
		c2.46,0.98,2.4,4.82-0.63,3.83c0.87,0.12,0.94-1.23-0.1-1.56c-3.39-1.09-5.02,3.98-4.77,7.09c0,0,0.07-5.54,3.67-6.68
		c-0.01,0.01-5.22,6.01,0.47,16.79c-1.88,0.48-3.07,1.77-3.07,1.77S63.19,55,67.33,47.05c1.86-3.6,5.34-5.35,8.23-4.39
		c1.22,0.4,2.38,1.87,2.74,3.25C79.67,51.05,75.45,53.89,72.69,52.43"/>
	<path class="st0" d="M31.34,74.32l-2.32,2.58l-0.97-0.29c0.69-0.7,1.38-1.22,2-2c0.13-0.14,0.27-0.33,0.34-0.51L31.34,74.32z"/>
	<path class="st0" d="M31.58,68.98l-0.17,0.22l-0.21,0.24l-0.18-0.11l-0.06,0.4c-0.12,0.16-0.25,0.31-0.37,0.47l0.14-0.93
		c-0.27,0-0.56,0.16-0.81,0.42l0.37,0.62l0.27-0.07c-0.2,0.24-0.4,0.49-0.59,0.74l-0.13,0.05h-0.02c0.05-0.21,0.13-0.37,0.24-0.52
		l-0.34-0.56c-0.17,0.24-0.31,0.56-0.4,0.9l0.48,0.17l-0.05,0.11l-0.16,0.03l0.06,0.13l-0.4-0.13v0.05
		c-0.02,0.17-0.02,0.33-0.02,0.48l-0.04,0.04h-0.04l-0.1,0.06l0.07,0.12l0.02,0.02l0.13,0.21l0.07,0.08l0.13,0.17l0.04,0.1
		l0.02,0.08c-0.1,0.04-0.12,0.18-0.06,0.29c0.05,0.1,0.15,0.29,0.35,0.33l0.25-0.1l0.01,0.01l0.05-0.01h0.01l-0.01,0.6h-0.01
		c-1-0.04-1.68-1.17-1.5-2.57c0.18-1.41,1.16-2.51,2.17-2.45C31.13,68.69,31.38,68.8,31.58,68.98"/>
	<path class="st0" d="M35.8,66.18l-0.01,0.11l0.02,0.12l-0.12,0.01l-0.06,0.05l-0.07,0.02c-0.45,0.62-1.55,2.14-1.62,2.22
		l-0.01,0.16L33.94,69l-0.14-0.01L33.74,69l-0.23,0.31v0.01c-0.87,0.35-1.62,1.35-1.82,2.5l-0.07,0.1l-0.08,0.13v0.04
		c0.06,0.12,0.05,0.13-0.06,0.16l0.02,0.14l-0.18-0.02c-0.11,0.14-0.21,0.28-0.31,0.41l0.06,0.16v0.05l-0.04,0.1l-0.13-0.04
		l-0.04-0.02l-0.22-0.07l-0.3-0.12c-0.14-0.05-0.22-0.01-0.22,0.11c-0.01,0.1-0.1,0.16-0.23,0.13l-0.27-0.21
		c-0.05-0.12-0.02-0.22,0.08-0.24c0.1-0.04,0.12-0.12,0.05-0.24l-0.17-0.21l-0.17-0.25l-0.04-0.03l-0.06-0.12l0.08-0.06l0.04,0.01
		h0.17c0.11-0.14,0.2-0.28,0.31-0.42l-0.07-0.16L30,71.13l0.08-0.11l0.13-0.05c0.4-0.49,0.81-1,1.21-1.5l0.04-0.04l0.2-0.24
		c0.13-0.18,0.27-0.35,0.4-0.53v-0.04c-0.08-0.13-0.04-0.18,0.1-0.16l0.1-0.07l0.04-0.01l0.24-0.3v-0.05
		c-0.1-0.13-0.06-0.19,0.08-0.16l0.13-0.06l0.01-0.01c0.41-0.51,0.81-1.01,1.22-1.52l0.51-0.62l0.01-0.02l0.04-0.11l-0.04-0.13h0.11
		l0.07-0.05l0.08-0.04l0.04-0.05c0.07,0.05,0.19-0.07,0.52,0.12c0.23,0.13,0.48,0.37,0.51,0.53l0.02,0.14l-0.05,0.06L35.8,66.18z"/>
	<polygon class="st0" points="29.82,71.02 29.81,71.02 29.82,71.02 	"/>
	<path class="st0" d="M29.58,73.6l-0.68-0.2c-0.54-0.43-0.8-1.29-0.68-2.28c0.18-1.41,1.23-2.57,2.25-2.5l0.06,0.01
		c-0.68,0.07-1.78,0.8-1.99,2.49C28.39,72.28,28.84,73.28,29.58,73.6"/>
	<path class="st0" d="M38.68,64.57c0,0-0.24,0.15-0.64,0.12c-0.39-0.02-0.65-0.18-1-0.11c0,0,0.19-0.1,0.63,0
		C38.1,64.68,38.42,64.66,38.68,64.57"/>
	<path class="st0" d="M37.13,64.65c-0.11,0.04-0.39,0.12-0.8,0.1c-0.53-0.04-0.89-0.21-1.34-0.15c0,0,0.24-0.08,0.82,0.03
		C36.37,64.73,36.78,64.72,37.13,64.65"/>
	<path class="st0" d="M37.28,64.47c0,0-0.39,0.17-1.04,0.13c-0.66-0.04-1.1-0.25-1.67-0.17c0,0,0.31-0.12,1.03,0.02
		C36.33,64.59,36.85,64.57,37.28,64.47"/>
	<path class="st0" d="M31.4,74.22l-0.98-0.23v-0.97l0.05,0.02l0.16,0.07l0.19,0.06l0.04,0.01l0.11,0.04
		C31.03,73.47,31.16,73.81,31.4,74.22"/>
	<path class="st0" d="M42.53,63.02l0.4-0.08l0.08-0.11l-2.56-0.19l-0.57-0.04l-0.31-0.02l0.53-0.49l0.01,0.52l0.27,0.03l0.07,0.01
		l0.11-0.59l0.52-0.33l0.21-0.74l2.91-2.7l-0.02-0.04l-3.57,3.32l-0.17-0.01l-0.14-0.1c-0.11,0.02-0.12,0.1-0.12,0.1l-0.2,0.21
		c0,0,0.02,0.05,0.2,0.04l0.02,0.06l-0.36,0.22l-0.21,0.4l-0.11,0.1l-0.25-0.01l-2.24-0.19l0.01,0.17h-0.06l-0.01,0.05h0.08
		L37,62.74h-0.07v0.05L37,62.8l2.17,0.08l-0.05,0.04L37,62.84l-2.38-0.23l0.02-0.02l2.23,0.22v-0.07l-0.01-0.02l-2.16-0.21
		l0.01-0.04l2.25,0.23l0.01-0.07l-2.09-0.19l1.99,0.17l0.01-0.05h0.01l0.01-0.06l-2.09-0.17l0.02-0.04l1.9,0.17l0.22,0.03v-0.08
		h-0.06l0.01-0.04l-2-0.16l0.01-0.04h-0.04l-0.01,0.04l-0.11-0.01l-0.74-0.07l0.02-0.02h-0.04L34,62.11l-0.78-0.08l0.01-0.01h-0.04
		l-0.01,0.01l-0.49-0.05l0.01-0.01h-0.04l-0.01,0.01l-0.17-0.01l0.01-0.01l-0.04-0.01l-0.01,0.01l-0.37-0.04l-0.04-0.01v0.01
		l-0.44-0.05h-0.02v0.06l0.02,0.01v0.01l0.39,0.04l-0.41-0.02v0.02l0.39,0.04l-0.02,0.05l-0.34-0.02v0.04l0.31,0.02l-0.01,0.02
		l-0.4-0.04v0.01h-0.02v0.04l0.39,0.04l-0.01,0.04l-0.37-0.04v0.08l0.31,0.04l-0.01,0.03l-0.6-0.07l-0.07-0.08l0.01-0.02l0.06,0.07
		l0.25,0.02v-0.09l-0.01-0.11l0.02,0.01v-0.01l0.11,0.01v-0.02h-0.02l-0.01-0.13h0.01v-0.01l-0.16,0.01l-0.11,0.04l1.06-1.63
		l0.02-0.01l0.02-0.04l0.01-0.04l0.16-0.24l0.07,0.29h-0.02l-0.05,0.44h0.01l-0.01,0.17v0.07h-0.01v0.01l-0.25-0.01v0.04h0.27v0.04
		l-0.31,0.01l0.01,0.02h0.3l0.01,0.01h-0.44l0.01,0.04l0.4,0.01l-0.01,0.01l-0.51-0.01v0.07l0.47,0.01l-0.01,0.01l-0.46-0.01v0.04
		l-0.21-0.01l0.01,0.03l0.6,0.04v0.01l-0.47-0.02v0.02l-0.18-0.01v0.04l0.62,0.04l-0.01,0.01l-0.65-0.04l0.01,0.02l0.62,0.05
		l-0.01,0.02l-0.6-0.04v0.04h-0.05v0.02l0.6,0.05l-0.02,0.05l-0.57-0.04v0.02l0.54,0.05l-0.02,0.04l-0.56-0.05l0.01,0.06l0.51,0.05
		l-0.02,0.04l-0.52-0.04v0.04l0.49,0.04l-0.01,0.01l-0.51-0.04v0.04l0.49,0.04l-0.01,0.01l-0.51-0.04v0.04l0.48,0.04l-0.01,0.02
		h0.04l0.01-0.02l0.39,0.04l-0.01,0.01l0.04,0.01l0.01-0.02l0.17,0.01l-0.01,0.03h0.04l0.01-0.01l0.49,0.04l-0.01,0.01l0.04,0.01
		l0.01-0.02l0.81,0.07l-0.01,0.01h0.04l0.01-0.01l0.83,0.07l-0.01,0.01h0.04l0.01-0.01l1.92,0.16l0.01-0.05h0.01l0.01-0.05l0.1,0.01
		l0.01,0.04l2.31,0.23v-0.1l-2.28-0.17V62.1l-0.11-0.01l0.01-0.04l-1.07-0.07l-0.78-0.07l0.01-0.01l1.86,0.13l0.01-0.06l-1.83-0.13
		l0.02-0.02L37,61.94l0.01-0.06l-1.8-0.13l0.01-0.02L37,61.86l0.01-0.06l-1.75-0.12l0.01-0.01l1.87,0.12l-0.01-0.07l-0.08-0.01
		l-1.71-0.12l0.02-0.04l1.73,0.11l0.01-0.07l-1.7-0.08l0.01-0.01l1.69,0.1h0.03l0.01-0.06l-0.51-0.04l0.62,0.02v0.01l1.91,0.15
		l-0.08-0.15l-1.73-0.12v-0.01l1.71,0.11l-0.04-0.05l-0.94-0.05l0.93,0.04l-0.04-0.06l-1.19-0.06l-0.41-0.02v0.02l0.65,0.05
		l-0.51-0.02v0.02l-0.17-0.01v-0.02l-1.03-0.04l1.01,0.02l0.01-0.05l0.11,0.01l0.01-0.07l-0.43-0.01h0.46l0.01-0.05l0.1,0.01
		l0.01-0.07l-0.39-0.01v-0.01h0.52l0.01-0.07L37.21,61v-0.04h0.95v-0.07l-0.33,0.01l-0.08-0.02l-0.07-0.33v-0.04l-0.07-0.18
		l0.05-0.02l-0.33-0.46h-0.01l-0.01-0.02l-0.1-0.45l0.28-0.44l0.02-0.48l0.02-0.04l-0.01-0.02l1.04-1.51l-0.04-0.02l-1.04,1.52
		l-0.01,0.02l-0.43,0.64l-0.06,0.01l-0.13-0.02l-0.06,0.1l-0.1,0.21c0,0,0.02,0.04,0.16-0.02l-0.37,0.54l-0.04-0.28l0.3-0.41
		l0.06-0.48l0.02-0.04v-0.01l1.13-1.44l-0.03-0.03l-1.15,1.44l-0.02,0.02l-0.53,0.66l-0.05-0.01l-0.07-0.01l-0.05,0.06l-0.08,0.13
		h0.12l-0.47,0.59l-0.01,0.01l-0.02,0.02l-0.14,0.18l-0.1-0.16l-0.01,0.01v-0.02l-0.06-0.45l0.29-0.39l0.06-0.45l1.05-1.39
		l-0.02-0.01l-1.01,1.33l-0.01-0.03l-0.04,0.05l0.01,0.02h-0.01v0.02l-0.37,0.5l-0.15,0.04l-0.1-0.05l0.11-0.14l0.06-0.46l0.02-0.04
		l-0.01-0.02l1.01-1.35l-0.02-0.01l-1,1.34h-0.01l-0.02,0.04v0.01l-0.41,0.54l-0.11,0.04l-0.12-0.04l-0.06,0.08l-0.04,0.03v-0.01
		l0.02-0.05l0.04-0.3l0.87-1.3l-0.02-0.02l-0.83,1.27l0.01-0.08l0.01-0.04l-0.02-0.04l-0.02,0.04v0.04l-0.06,0.22l-0.15,0.22
		l-0.02,0.01l-0.02,0.05l-0.04,0.04c0-0.02-0.02-0.06-0.22,0l-0.06-0.05l0.03-0.04l0.05-0.34l0.98-1.58l-0.02-0.01l-0.95,1.52
		l0.01-0.04l-0.04,0.01l-0.05,0.14l-0.23,0.37c0-0.02-0.02-0.07-0.22-0.01l-0.11-0.02l-0.06,0.08l-0.11,0.17
		c0,0,0.02,0.04,0.17-0.01l0.07,0.05v0.01h0.01l-0.08,0.16l-0.02-0.04h-0.17l-0.04-0.16l-0.02-0.01l0.05-0.07l0.1-0.4l0.01-0.04
		l-0.02-0.04h-0.01l0.92-1.38l-0.02-0.02l-1.24,1.89l-0.16,0.01l-0.11-0.04l-0.06,0.07l-0.11,0.16c0,0,0.02,0.04,0.16,0l0.01,0.01
		l0.04,0.07l-0.17,0.17l-0.05,0.21l-0.02,0.05h-0.01l-0.04,0.01l-0.01,0.06h0.01l-1.09,1.63l-0.23,0.07l0.11,0.12l-0.01,0.02
		l-0.06-0.07l-0.07-0.04l0.1,0.16l-1.67,2.54l0.02,0.01l1.65-2.51l0.11,0.18c0,0,0.22,0.07,0.47,0.14l-1.54,2.47l0.02,0.01
		l1.54-2.49c0.11,0.04,0.23,0.06,0.33,0.08l-1.1,1.68l-0.53,0.72l0.02,0.01l0.23-0.31l-0.45,0.69l0.02,0.01l0.71-1.09l1.26-1.68
		h0.02c0.06,0.01,0.22,0.02,0.45,0.06l-1.82,2.4l0.02,0.03l1.83-2.43c0.21,0.02,0.46,0.06,0.75,0.1l-0.93,1.16
		c-0.16-0.04-0.28-0.05-0.35-0.02c0.12,0,0.22,0.04,0.33,0.06l-0.81,1.01l0.02,0.01l0.82-1.01l0.27,0.06
		c0.23,0.02,0.4-0.05,0.47-0.07c-0.19,0.05-0.42,0.06-0.71-0.02l0.93-1.17c0.28,0.04,0.59,0.06,0.92,0.1l-0.88,1.27
		c-0.24-0.02-0.36,0.02-0.36,0.02c0.12-0.01,0.23-0.01,0.35,0.01l-0.64,0.92l0.02,0.02l0.64-0.93c0.19,0.04,0.37,0.11,0.62,0.13
		c0.3,0.03,0.52-0.05,0.6-0.08c-0.27,0.07-0.57,0.07-0.98-0.04l-0.22-0.05l0.88-1.28c1.17,0.12,2.61,0.25,3.81,0.27
		c0.21,0,0.41,0.01,0.6,0.01l-0.58,0.53l0.04,0.02l0.6-0.56c2.03,0.04,3.39,0.07,3.39,0.07l0.57-0.17l0.18-0.24H43l-0.07,0.08
		l-0.4,0.1l-3.34-0.14l0.04-0.04L42.53,63.02z M40.73,61.67c0,0,0.02-0.06-0.08-0.1L41.27,61l-0.29,0.64l-0.43,0.21l-0.04-0.07
		L40.73,61.67z M39.9,62.14l0.12-0.05l-0.29,0.28L39.9,62.14z M32.61,61.12l0.37,0.01v0.01l-0.37-0.01V61.12z M34.26,61.77
		l-0.82-0.05l0.04-0.05l0.81,0.06L34.26,61.77z M35.09,61.88l-0.01,0.02l-0.81-0.08L35.09,61.88z M32.61,61.76l0.02-0.02l0.18,0.01
		l-0.01,0.02L32.61,61.76z M32.78,61.81l-0.01,0.01l-0.19-0.01l0.01-0.01L32.78,61.81z M33.09,61.44l0.02-0.02l0.51,0.02l-0.02,0.02
		L33.09,61.44z M33.5,61.6l-0.04,0.04l-0.49-0.04L33,61.56L33.5,61.6z M33.14,61.38l0.01-0.01l0.51,0.01l-0.01,0.02L33.14,61.38z
		 M33.15,61.3l-0.23-0.01l0.01-0.01h0.23L33.15,61.3z M33.08,61.41l-0.02,0.01l-0.22-0.01l0.01-0.02L33.08,61.41z M33.03,61.46v0.01
		l-0.23-0.01l0.01-0.01L33.03,61.46z M32.96,61.56l-0.02,0.05l-0.21-0.02l0.02-0.04L32.96,61.56z M32.9,61.64l-0.04,0.04l-0.19-0.01
		l0.04-0.05L32.9,61.64z M32.8,61.81l0.51,0.04l-0.01,0.02l-0.49-0.04V61.81z M32.84,61.77l0.01-0.01l0.48,0.05L32.84,61.77z
		 M32.9,61.69l0.04-0.05l0.51,0.04l-0.04,0.04L32.9,61.69z M33.5,61.64l0.04-0.04l0.81,0.06l-0.02,0.02L33.5,61.64z M33.64,61.47
		l0.02-0.04l0.83,0.06l-0.02,0.02L33.64,61.47z M33.68,61.4l0.01-0.02l0.23,0.01l0.62,0.04l-0.01,0.02L33.68,61.4z M33.7,61.33
		l-0.51-0.02l0.01-0.02l0.52,0.02L33.7,61.33z M32.96,61.24v-0.01h0.17l0.06,0.01H32.96z M33.01,61.19h-0.02v-0.01h0.02V61.19z
		 M32.61,61.17l0.35,0.01l-0.01,0.01l-0.34-0.01V61.17z M32.61,61.22l0.31,0.01h-0.31V61.22z M32.59,61.26l0.31,0.01l-0.01,0.02
		l-0.33-0.02L32.59,61.26z M32.54,61.17h0.01v0.01h-0.02L32.54,61.17z M32.5,61.21h0.01l-0.01,0.01V61.21z M32.41,61.36l0.41,0.02
		l-0.01,0.02l-0.41-0.02L32.41,61.36z M32.38,61.41l0.4,0.04v0.01l-0.41-0.02L32.38,61.41z M32.32,61.51l0.4,0.04l-0.02,0.04
		l-0.41-0.02L32.32,61.51z M32.27,61.59l0.4,0.02l-0.04,0.05l-0.14-0.01l-0.25-0.02L32.27,61.59z M32.2,61.69l0.4,0.04l-0.02,0.04
		l-0.4-0.02L32.2,61.69z M32.51,61.86l-0.4-0.02l0.01-0.02l0.4,0.04L32.51,61.86z M32.15,61.77l0.01-0.01l0.39,0.04l-0.01,0.01
		L32.15,61.77z M32.73,61.87l-0.18-0.01v-0.01l0.18,0.01V61.87z M33.26,61.92l-0.49-0.04v-0.01l0.49,0.04V61.92z M33.3,61.92v-0.01
		l0.81,0.07L33.3,61.92z M34.14,61.93l-0.81-0.06l0.01-0.01l0.81,0.06L34.14,61.93z M35.01,61.99l-0.83-0.06l0.01-0.01l0.83,0.06
		L35.01,61.99z M35.37,62l0.81,0.08L35.05,62l0.01-0.03L35.37,62z M35.12,61.83l-0.82-0.05l0.04-0.04l0.81,0.06L35.12,61.83z
		 M35.18,61.75l-0.81-0.05l0.02-0.04l0.8,0.06L35.18,61.75z M35.23,61.68l-0.77-0.06l0.78,0.05L35.23,61.68z M35.3,61.58l-0.8-0.06
		l0.02-0.02l0.8,0.05L35.3,61.58z M35.36,61.48l-0.8-0.04l0.01-0.02l0.78,0.05V61.48z M36.8,61.19l-0.48-0.01h0.48V61.19z
		 M36.64,61.12h-0.33v-0.01L36.64,61.12z M36.32,61v-0.04h0.43L36.76,61H36.32z M37.08,61.07l-0.22-0.01h0.23L37.08,61.07z
		 M36.85,61v-0.04h0.28L37.14,61H36.85z M37.23,60.13l0.22,0.26l0.04-0.01l0.1,0.19l0.1,0.31v0.01H37.2l-0.01-0.23l0.01-0.21h0.01
		L37.23,60.13z M37.09,59.21l0.12-0.13c0,0,0.02-0.08-0.12-0.05l0.39-0.57h0.01l-0.11,0.45l-0.29,0.41l-0.01-0.07L37.09,59.21z
		 M36.88,59.34l0.05,0.06l-0.2,0.16L36.88,59.34z M36.5,59.93l0.27-0.33l0.12-0.08l0.16,0.42h-0.01l0.01,0.53h0.02l0.01,0.19
		l0.01,0.04l0.04,0.21h-0.29l-0.02-0.11l0.06-0.02l-0.11-0.21l-0.01-0.07l-0.02-0.01l-0.21-0.41h-0.01l-0.01-0.02l-0.01-0.07
		L36.5,59.93z M36.69,60.87l0.04-0.02l0.01,0.07h-0.4l0.06-0.58L36.69,60.87z M36.76,58.7h0.01l-0.13,0.43l-0.31,0.37l-0.01,0.02
		v-0.08l-0.02-0.05l0.07-0.05l-0.08-0.04L36.76,58.7z M37.34,61.44l1.55,0.11l-1.61-0.08l0.01,0.04h-0.02l0.01-0.04v-0.01
		l-1.82-0.06l0.02-0.02L37.34,61.44z M35.6,61.09v0.02h-0.24l-0.05-0.02H35.6z M35.21,61.01l-0.01-0.04h0.37l0.01,0.04H35.21z
		 M36.22,60.97V61h-0.49l0.02-0.02L36.22,60.97z M35.78,60.92l0.42-0.6l-0.04,0.6H35.78z M36.23,61.11v0.01l-0.56-0.01V61.1
		L36.23,61.11z M35.69,61h-0.02v-0.02h0.05L35.69,61z M36.16,61.28l-0.01,0.01l-0.59-0.02L36.16,61.28z M36.11,59.52l0.05,0.07
		l-0.22,0.13L36.11,59.52z M35.6,60.14l0.06-0.01l0.02-0.05l0.28-0.3l0.13-0.07l0.13,0.42h-0.02v0.12l-0.46,0.66h-0.1l-0.01-0.07
		v-0.04l-0.05-0.18l0.05-0.01l-0.18-0.29L35.6,60.14z M35.44,60.68l0.04-0.01l0.07,0.19l0.01,0.06l-0.36,0.01l-0.02-0.1l0.02-0.11
		h0.01v-0.08l0.11-0.13L35.44,60.68z M35.3,60.48l-0.08,0.1l0.01-0.1l0.01-0.08L35.3,60.48z M35.16,59.55l0.01-0.05l0.13-0.12
		l-0.05-0.05l0.31-0.41l-0.1,0.31l-0.31,0.37V59.55z M35.45,61.36l-0.02,0.02l-0.45-0.01l-0.34-0.01l0.01-0.02l0.3,0.01l0.02,0.02
		l0.1-0.02L35.45,61.36z M35.05,60.71l0.01,0.01l-0.01,0.06l-0.11,0.15h-0.25l0.08-0.22l0.06-0.31l0.12,0.17l0.04-0.01l0.05,0.13
		v0.03H35.05z M35.06,60.93h-0.08l0.07-0.1v0.07L35.06,60.93z M34.94,60.98h0.12l0.01,0.04h-0.16L34.94,60.98z M35.07,61.07v0.04
		l-0.23-0.01l0.02-0.04L35.07,61.07z M35.06,60.2v0.13l-0.19-0.31l-0.01,0.01v-0.02l-0.01-0.13l0.04-0.05l0.07-0.04l0.12,0.41H35.06
		z M34.99,59.64l-0.08,0.11l-0.07,0.05l-0.02-0.17l0.14-0.04l0.01,0.02L34.99,59.64z M34.67,59.44l0.01-0.05l0.13-0.12l-0.07-0.05
		l0.36-0.48l-0.12,0.39l-0.31,0.37V59.44z M34.67,60.98h0.23l-0.02,0.04h-0.21V60.98z M34.67,61.06h0.16l-0.02,0.04h-0.13V61.06z
		 M34.61,61.23l0.07,0.01H34.6L34.61,61.23z M34.49,60.9l0.01,0.02h-0.01V60.9z M34.51,60.98v0.04l-0.01-0.04H34.51z M34.61,61.34
		l-0.02,0.02l-0.63-0.02h-0.22l0.01-0.04L34.61,61.34z M33.79,61.26h0.01v0.01h-0.01V61.26z M33.73,60.52l-0.24,0.33v-0.07
		l0.02-0.19h0.01l0.04-0.23v-0.04l0.01-0.02L33.73,60.52z M33.64,59.88l0.05-0.05l0.12-0.07l0.02,0.08l-0.13,0.22l-0.02-0.03h-0.01
		L33.64,59.88z M33.77,60.53h0.01l0.07,0.17l0.06,0.24h-0.42V60.9L33.77,60.53z M33.88,60.39l0.02-0.04v0.06L33.88,60.39z
		 M33.91,60.98l0.01,0.01h-0.43v-0.01H33.91z M33.9,61.06l-0.01,0.02H33.5l-0.01-0.01v-0.01H33.9z M33.83,61.21h0.04v0.01h-0.04
		V61.21z M34.45,61.1l-0.44-0.01v-0.01h0.11l0.01-0.01h0.31V61.1z M34.32,59.14l-0.02,0.08l-0.02,0.02h-0.01L34.32,59.14z
		 M34.24,59.93l0.1,0.11l0.04,0.28l0.01,0.1l-0.19-0.31h-0.01v-0.03l-0.01-0.05L34.18,60l0.01-0.04l0.01-0.01L34.24,59.93z
		 M34.41,60.93l-0.37,0.01l0.25-0.34h0.01l0.07,0.18L34.41,60.93z M34.22,59.53l-0.07,0.12l-0.02,0.05v-0.05L34.22,59.53z
		 M34.01,59.49l0.12-0.12l-0.12,0.21L34,59.53L34.01,59.49z M34,60.86l0.04-0.19h0.01l0.02-0.24l0.01-0.07l0.17,0.25L34,60.93V60.86
		z M34,60.98h0.42l0.01,0.04L34.02,61L34,60.99V60.98z M33.94,61.17h-0.07v-0.01h0.07V61.17z M33.93,60.16h-0.01L33.9,60.3
		l-0.04,0.05l-0.16-0.27l0.13-0.21L33.93,60.16z M33.87,59.65l-0.24,0.16l-0.02-0.17l0.04-0.04c0,0,0.05,0.01,0.16-0.02l0.02,0.01
		L33.87,59.65z M33.83,59.09l-0.05,0.13l-0.18,0.23L33.83,59.09z M33.49,59.52l0.01-0.04l0.11-0.1l-0.15,0.22L33.49,59.52z
		 M33.47,61.15l0.36,0.01v0.01l-0.37-0.01L33.47,61.15z M33.41,60.81l0.01,0.13h-0.06L33.41,60.81z M33.43,61.06v0.01l-0.01,0.01
		h-0.06l0.01-0.02H33.43z M33.34,61.01l0.02,0.01h-0.02V61.01z M33.79,61.21v0.01l-0.52-0.03L33.79,61.21z M33.76,61.26v0.01
		l-0.52-0.02L33.76,61.26z M33.08,61.15l-0.01-0.01l0.14,0.01H33.08z M33.2,61.09h-0.13v-0.02h0.13V61.09z M33.09,61.02l0.01-0.01
		h0.1v0.01H33.09z M33.2,60.94h-0.06l0.04-0.05L33.2,60.94z M33.08,60.29l0.03,0.17l0.02,0.28l0.04,0.13l-0.06,0.07l-0.05,0.01
		v-0.12l-0.02-0.16l0.04-0.01l-0.1-0.19L33.08,60.29z M32.82,59.83l0.13-0.16v0.06l0.04,0.07l-0.06,0.1l-0.05,0.24v0.13l-0.02-0.05
		l-0.01,0.01v-0.02L32.82,59.83z M32.85,60.65l0.04,0.06l0.02-0.01l0.06,0.17l0.01,0.08h-0.31L32.85,60.65z M33.07,60.23v0.02
		l-0.12,0.17v-0.05l-0.02-0.06l0.02-0.12L33,60.14L33.07,60.23z M32.72,59.71l0.05-0.06l0.08-0.07l-0.01-0.04l0.31-0.47v0.02
		l-0.13,0.36l-0.3,0.31V59.71z M32.62,60.92l0.05-0.18l0.06-0.28l0.11,0.17l-0.21,0.33h-0.01V60.92z M32.63,61L33,61.01v0.01h-0.37
		L32.63,61z M33,61.06v0.02l-0.39-0.01l0.01-0.01H33z M34.67,62.49l-0.87-0.08l0.02-0.02l0.86,0.08L34.67,62.49z M32.34,62.17
		l0.01-0.02l0.16,0.01l-0.02,0.03L32.34,62.17z M32.45,62.24l-0.02,0.02l-0.15-0.01l0.02-0.04L32.45,62.24z M32.49,62.24l0.48,0.05
		l-0.02,0.04l-0.48-0.05L32.49,62.24z M32.53,62.18l0.02-0.03l0.48,0.05l-0.01,0.01L32.53,62.18z M33.01,62.29l0.78,0.08l-0.02,0.02
		l-0.78-0.07L33.01,62.29z M33.06,62.23l0.01-0.02l0.8,0.07l-0.01,0.01L33.06,62.23z M33.89,62.29l0.01-0.01l0.86,0.08L33.89,62.29z
		 M33.96,62.21l0.86,0.07L34.8,62.3l-0.86-0.06L33.96,62.21z M33.13,62.12l0.8,0.07l-0.04,0.04l-0.78-0.06L33.13,62.12z
		 M33.09,62.12l-0.02,0.05l-0.5-0.05l0.04-0.04L33.09,62.12z M32.57,62.08l-0.04,0.05l-0.16-0.01l0.02-0.05L32.57,62.08z
		 M32.02,61.99l0.39,0.04L32.02,62V61.99z M32,62.03l0.39,0.04l-0.04,0.05l-0.37-0.04L32,62.03z M31.95,62.11l0.37,0.04l-0.01,0.02
		l-0.39-0.04L31.95,62.11z M31.9,62.18l0.37,0.04l-0.02,0.04l-0.37-0.04L31.9,62.18z M31.17,63.95l0.84-1.28l0.1,0.01L31.17,63.95z
		 M32.18,62.36l-0.36-0.04l0.01-0.03l0.37,0.04L32.18,62.36z M32.34,62.39l-0.13-0.01l0.01-0.04l0.14,0.01L32.34,62.39z
		 M32.86,62.44l-0.28-0.02l-0.21-0.02l0.02-0.02l0.48,0.05L32.86,62.44z M33.67,62.52l-0.77-0.07l0.02-0.04l0.77,0.07L33.67,62.52z
		 M34.59,62.61l-0.88-0.08l0.02-0.02l0.88,0.08L34.59,62.61z"/>
	<path class="st0" d="M56.3,37.29c-0.04-0.14-0.11-0.28-0.22-0.39c-0.11-0.11-0.28-0.19-0.51-0.25c-0.22-0.06-0.4-0.07-0.56-0.04
		c-0.15,0.05-0.28,0.12-0.39,0.24c-0.1,0.11-0.18,0.27-0.27,0.45c-0.06,0.18-0.12,0.39-0.18,0.6c-0.07,0.23-0.11,0.43-0.13,0.63
		c-0.04,0.19-0.02,0.37,0,0.52c0.04,0.14,0.11,0.28,0.23,0.39c0.11,0.11,0.28,0.19,0.49,0.25c0.23,0.05,0.41,0.06,0.55,0.02
		c0.16-0.04,0.28-0.11,0.39-0.23c0.11-0.11,0.19-0.25,0.27-0.43c0.07-0.19,0.13-0.4,0.19-0.61c0.06-0.23,0.11-0.44,0.13-0.63
		C56.33,37.62,56.33,37.45,56.3,37.29 M55.7,37.77c-0.02,0.14-0.07,0.31-0.12,0.51c-0.05,0.19-0.1,0.37-0.14,0.51
		c-0.05,0.12-0.1,0.23-0.15,0.31l-0.18,0.16l-0.22,0.01l-0.2-0.12l-0.06-0.22c-0.01-0.11,0-0.22,0.02-0.35
		c0.02-0.14,0.06-0.31,0.12-0.52c0.05-0.19,0.1-0.36,0.14-0.49c0.04-0.13,0.08-0.24,0.14-0.33l0.17-0.15l0.23-0.01l0.19,0.11
		l0.07,0.23C55.74,37.52,55.73,37.64,55.7,37.77"/>
	<path class="st0" d="M40.01,64.39c-0.07,0.02-0.24,0.08-0.47,0.06c-0.27-0.04-0.45-0.13-0.66-0.13c0.07-0.01,0.21-0.01,0.37,0.04
		C39.56,64.44,39.81,64.44,40.01,64.39"/>
	<polygon class="st0" points="33.25,61.97 33.22,62.01 34.02,62.08 34.05,62.04 	"/>
	<path class="st0" d="M53.05,36.33c-0.12-0.15-0.3-0.25-0.56-0.29l-1.12-0.19l-0.49,3.01l0.59,0.1l0.23-1.27l0.31,0.06
		c0.13,0.01,0.22,0.06,0.25,0.14c0.04,0.07,0.05,0.17,0.04,0.29l-0.07,0.58l-0.01,0.16l0.04,0.16l0.64,0.12l0.01-0.02l-0.08-0.19
		c0.01-0.08,0.02-0.2,0.04-0.37l0.02-0.22l0.02-0.18c0.01-0.17-0.01-0.3-0.06-0.4c-0.06-0.08-0.16-0.14-0.31-0.19v-0.01
		c0.17-0.01,0.31-0.07,0.42-0.18c0.1-0.11,0.17-0.27,0.21-0.47C53.21,36.69,53.17,36.48,53.05,36.33 M52.37,37.26
		c-0.1,0.05-0.22,0.07-0.36,0.05l-0.25-0.05l0.14-0.86l0.29,0.05c0.28,0.05,0.4,0.21,0.35,0.48C52.5,37.1,52.46,37.2,52.37,37.26"/>
	<polygon class="st0" points="54.26,36.39 53.62,39.36 53.02,39.22 53.65,36.25 	"/>
	<polygon class="st0" points="51.15,35.82 51.09,36.31 50.44,36.25 50.16,38.76 49.56,38.69 49.84,36.18 49.17,36.11 49.23,35.6 	
		"/>
	<path class="st0" d="M47.19,36.07l-0.13-0.28l-0.25-0.21c-0.11-0.06-0.24-0.1-0.4-0.1l-1.06-0.01l-0.04,3.04h0.62l0.01-1.21
		l0.33,0.01c0.15,0,0.28-0.02,0.4-0.06c0.12-0.04,0.22-0.1,0.3-0.17c0.08-0.06,0.15-0.16,0.19-0.27c0.05-0.12,0.07-0.27,0.07-0.42
		C47.23,36.3,47.22,36.19,47.19,36.07 M46.51,36.76c-0.07,0.07-0.17,0.11-0.3,0.11h-0.27l0.01-0.93h0.25
		c0.16,0.01,0.27,0.05,0.33,0.13c0.06,0.07,0.1,0.19,0.1,0.34C46.63,36.58,46.58,36.69,46.51,36.76"/>
	<path class="st0" d="M51.74,45.38c0,0-0.2,0.66-0.22,1.28c-0.12-0.01-0.25-0.02-0.37-0.04c-0.06-0.54,0.07-1.01,0.07-1.01
		s-0.71-1-2-0.93c-0.63,0.04-1.19,0.34-1.62,0.65c0.08-0.21,0.13-0.43,0.16-0.65c0.64-0.35,1.24-0.54,1.82-0.49
		C51.1,44.32,51.74,45.38,51.74,45.38"/>
	<path class="st0" d="M48.67,35.59l-0.76-0.06l-0.98,2.98l0.64,0.05l0.17-0.64l0.82,0.05l0.1,0.65l0.64,0.04L48.67,35.59z
		 M47.88,37.44l0.36-1.36h0.01l0.22,1.39L47.88,37.44z"/>
	<path class="st0" d="M51.29,28.59c-3.68-0.31-5.66,2.61-5.66,2.61s-1.97-2.92-5.66-2.61c0.33-0.25,0.71-0.41,1.09-0.56
		c0.62-0.23,1.26-0.37,1.91-0.46c0.88-0.12,1.79-0.18,2.67-0.17c1.27-0.03,2.62,0.07,3.85,0.4c0.47,0.12,0.94,0.29,1.38,0.52
		c0.12,0.06,0.23,0.12,0.33,0.19L51.29,28.59z"/>
	<path class="st0" d="M64.69,51.67c-3.15-2.21-6.34-2.34-9.42-2.49c-3.14-0.13-6.11-0.27-9.14-2.37c-0.01-0.01-0.02-0.01-0.04-0.02
		l-0.35-0.25l0.16,11.92l0.1,0.07c0.08,0.06,0.17,0.12,0.25,0.17c3.05,2.04,6,2.1,9.01,2.23c3.15,0.14,6.12,0.27,9.16,2.4l0.36,0.24
		V51.73L64.69,51.67z M64.34,62.73c-3.04-1.98-6.1-2.11-9.07-2.25c-3.12-0.13-5.9-0.19-8.92-2.26L46.19,47.4
		c3.04,1.98,6.1,2.11,9.05,2.25c3.13,0.13,6.07,0.27,9.09,2.33V62.73z"/>
	<path class="st0" d="M60.75,53.62c-1.84-0.9-3.69-0.98-5.48-1.05c-1.82-0.06-3.55-0.13-5.3-0.99l-0.33-0.16l0.16,5.08l0.12,0.06
		c1.85,0.91,3.54,0.91,5.34,0.97c1.82,0.07,3.55,0.15,5.3,1l0.33,0.16v-5.01L60.75,53.62z M60.44,57.98
		c-1.74-0.76-3.48-0.82-5.17-0.89c-1.79-0.06-3.31-0.06-5.02-0.86l-0.16-4.09c1.74,0.76,3.48,0.82,5.17,0.88
		c1.77,0.07,3.46,0.13,5.18,0.94V57.98z"/>
	<path class="st0" d="M54.72,55.29c-0.1,0.19-0.19,0.37-0.29,0.53c0.2-0.01,0.4-0.09,0.61-0.2c0.07,0.2,0.15,0.41,0.22,0.61
		c0.07-0.22,0.15-0.44,0.22-0.65c0.2,0.08,0.4,0.19,0.6,0.38c-0.1-0.24-0.19-0.47-0.29-0.68c0.21-0.05,0.42-0.04,0.63,0.09
		c-0.21-0.28-0.42-0.44-0.63-0.54c0.1-0.19,0.19-0.37,0.29-0.52c-0.2,0.01-0.4,0.09-0.6,0.2c-0.07-0.2-0.15-0.41-0.22-0.61
		c-0.08,0.22-0.15,0.44-0.22,0.65c-0.2-0.08-0.4-0.19-0.61-0.37c0.1,0.24,0.19,0.47,0.29,0.68c-0.21,0.05-0.42,0.04-0.63-0.09
		C54.3,55.03,54.51,55.19,54.72,55.29"/>
	<path class="st0" d="M62.74,52.61c-2.51-1.54-5.03-1.64-7.47-1.74c-2.5-0.08-4.85-0.18-7.25-1.67l-0.34-0.22l0.16,8.52l0.11,0.06
		c2.5,1.56,4.87,1.58,7.32,1.67c2.49,0.1,4.84,0.19,7.24,1.68l0.35,0.21v-8.44L62.74,52.61z M62.4,60.32
		c-2.4-1.35-4.8-1.45-7.13-1.53c-2.46-0.1-4.62-0.11-6.99-1.53l-0.16-7.47c2.39,1.36,4.8,1.45,7.13,1.55
		c2.45,0.08,4.77,0.18,7.15,1.61V60.32z"/>
	<polygon class="st0" points="46.38,44.63 46.05,46.16 45.97,46.16 46,45.46 45.9,43.05 45.82,45.46 45.84,46.16 45.77,46.16 
		45.42,44.63 45.9,42.43 	"/>
	<path class="st0" d="M56.75,64.3c-0.06,0.01-0.12,0.01-0.21,0c-0.22-0.05-0.34-0.16-0.54-0.16c0,0,0.11-0.04,0.34,0.06
		C56.5,64.26,56.63,64.3,56.75,64.3"/>
	<path class="st0" d="M55.91,64.31c0,0-0.18,0.1-0.48,0.05c-0.29-0.05-0.47-0.19-0.72-0.16c0,0,0.15-0.06,0.46,0.05
		C55.47,64.36,55.7,64.36,55.91,64.31"/>
	<polygon class="st0" points="56.97,62.92 56.97,62.98 55.68,62.85 55.68,62.82 55.7,62.82 55.7,62.81 55.69,62.81 55.68,62.78 
		55.69,62.78 	"/>
	<polygon class="st0" points="56.56,62.28 56.11,62.26 56.11,62.24 56.49,62.24 	"/>
	<polygon class="st0" points="56.61,62.32 56.09,62.3 56.08,62.28 56.57,62.29 	"/>
	<polygon class="st0" points="56.66,62.36 56.02,62.33 56.02,62.32 56.04,62.32 56.04,62.31 56.09,62.31 56.63,62.33 	"/>
	<polygon class="st0" points="56.73,62.43 55.96,62.38 55.96,62.36 56.71,62.4 	"/>
	<polygon class="st0" points="56.71,62.39 55.96,62.35 55.95,62.34 56.66,62.36 56.68,62.36 	"/>
	<polygon class="st0" points="56.98,63 56.98,63.03 55.7,62.9 55.7,62.87 	"/>
	<path class="st0" d="M54.86,61.63l-0.04,0.04l-0.01,0.02v0.01h0.04l0.01-0.04l0.04-0.04H54.86z M59.08,63.45l-0.24,0.05l-1.96-0.12
		l0.02-0.02l1.93,0.12l0.24-0.05l0.05-0.06l-1.5-0.14l0.07-0.35l0.3-0.18l0.13-0.42l0.45-0.4h-0.02l-0.83,0.72l-0.1-0.01l-0.08-0.06
		l-0.07,0.06l-0.12,0.12l0.11,0.01l0.02,0.05l-0.22,0.12l-0.13,0.23l-0.06,0.06l-0.14-0.01l-1.32-0.15v0.1h-0.04l-0.01,0.02
		l0.06,0.01l-0.04,0.1l-0.04-0.01v0.04l0.04,0.01l1.28,0.07l-0.02,0.02l-1.26-0.07l-1.39-0.17l0.01-0.01l1.3,0.16v-0.06l-1.27-0.16
		l0.01-0.01l1.32,0.16v-0.04l-0.05-0.01v-0.04h0.01l0.01-0.04l-1.23-0.12l0.01-0.03l1.11,0.12l0.11,0.02h0.02v-0.05h-0.04l0.01-0.03
		l-1.18-0.12l0.01-0.01l1.16,0.12l0.01-0.04l-1.13-0.12l1.12,0.11v-0.02h0.01l0.01-0.04l0.05,0.01l0.01,0.03l1.35,0.16v-0.05
		l-1.34-0.13v-0.04l-0.06-0.01v-0.01l-0.63-0.06l-0.45-0.06l1.09,0.1l0.01-0.04l-1.07-0.1l0.01-0.02l1.06,0.11l0.01-0.04l-1.05-0.1
		v-0.01l1.04,0.1l0.01-0.04l-1.03-0.1l1.1,0.08v-0.04l-0.05-0.01l-1.01-0.08l0.02-0.02l1.01,0.08v-0.04h0.03v-0.05h0.07v0.01
		l1.11,0.11l-0.05-0.08l-1.01-0.1l0.01-0.01l1,0.08l-0.02-0.02l-0.56-0.04l0.54,0.03l-0.02-0.03l-0.93-0.07v0.01l0.07,0.01v0.02
		l-0.1-0.01l0.01-0.02h-0.01l0.01-0.02h0.06v-0.04l-0.25-0.01v-0.01l0.28,0.01v-0.02h0.06l0.01-0.04l-0.23-0.01v-0.01l0.3,0.01
		l0.01-0.04l-0.33-0.01v-0.01h0.4l0.17,0.01v-0.05h-0.19l-0.05-0.01l-0.04-0.19v-0.02l-0.04-0.11h0.02l-0.11-0.16l-0.25-0.01v0.24
		h0.01v0.12l0.01,0.02l0.01,0.12h-0.17l-0.01-0.07l0.04-0.01l-0.06-0.12l-0.01-0.04l-0.01-0.01l-0.11-0.25h-0.01v-0.01l-0.18-0.01
		l0.02,0.06h-0.01l-0.01,0.07l-0.28,0.39h-0.05l-0.01-0.05v-0.02l-0.02-0.11h0.02l-0.1-0.17l0.08-0.11l-0.1,0.08l-0.05-0.1
		l-0.01,0.01v-0.08l-0.18-0.01l0.02,0.12l-0.01,0.08l-0.1-0.18h-0.01v-0.04c-0.11-0.01-0.23-0.01-0.34-0.02l0.02,0.05l0.02,0.17
		v0.06l-0.11-0.19v-0.01l-0.01-0.02l0.01-0.01l0.01-0.02v-0.01l-0.2-0.02l0.04,0.14l-0.01,0.08l-0.02,0.02l-0.08-0.16l0.07-0.1
		h-0.01l-0.07,0.08l-0.01-0.01l-0.01-0.08c-0.13-0.01-0.27-0.04-0.4-0.05l-0.02,0.05l-0.04,0.13v0.08l-0.01-0.04V61.7l-0.01-0.22
		l0.01-0.01l-0.16-0.02v0.01l-0.1,0.11l-0.02,0.12l-0.02,0.02l-0.02,0.01l-0.01,0.03l0.01,0.01l-0.65,0.94l-0.15,0.04l0.07,0.07
		v0.01h-0.01l-0.04-0.04l-0.04-0.03l0.05,0.1l-0.45,0.63c-0.08-0.01-0.18-0.04-0.3-0.07c-0.07-0.02-0.13-0.05-0.18-0.05
		c0.12,0.04,0.23,0.1,0.39,0.13l0.08,0.01l-0.31,0.46h0.01l0.33-0.46c0.16,0.01,0.27-0.03,0.27-0.03l-0.25,0.01l0.44-0.63l0.06,0.11
		c0,0,0.12,0.05,0.27,0.1l-0.36,0.55c-0.18-0.04-0.27,0-0.27,0l0.24,0.02l-0.25,0.4h0.01l0.27-0.39l0.17,0.06l-0.22,0.31h0.02
		l0.23-0.3l0.24,0.07l-0.19,0.25h0.01l0.21-0.24c0.28,0.05,0.47-0.02,0.47-0.02c-0.13,0.02-0.28,0.02-0.45-0.01l0.47-0.59
		c0.12,0.01,0.27,0.04,0.45,0.06l-0.52,0.62h-0.1l0.1,0.01l-0.22,0.24h0.02L53,63.89c0.19,0,0.37,0.06,0.56,0.12l-0.04,0.05
		c-0.24-0.04-0.35-0.01-0.35-0.01c0.12,0,0.23,0.01,0.34,0.04l-0.06,0.08l0.01,0.01l0.06-0.08c0.19,0.05,0.39,0.12,0.64,0.17
		c0.39,0.06,0.63-0.02,0.63-0.02c-0.27,0.04-0.58,0.01-1-0.11l-0.24-0.06l0.04-0.06c0.16,0.05,0.33,0.1,0.52,0.13
		c0.48,0.08,0.79-0.01,0.79-0.01c-0.33,0.04-0.71,0.01-1.23-0.15l-0.05-0.01l0.46-0.64c0.69,0.08,1.53,0.18,2.25,0.21
		c0.12,0,0.23,0.01,0.35,0.01l-0.34,0.3l0.01,0.02l0.36-0.33c1.19,0.05,1.99,0.08,1.99,0.08l0.34-0.08l0.11-0.15h-0.01L59.08,63.45z
		 M57.8,62.67l-0.05-0.06l0.37-0.33l-0.18,0.37l-0.27,0.11l-0.01-0.05L57.8,62.67z M57.31,62.92l0.07-0.02l-0.18,0.17L57.31,62.92z
		 M57.43,62.9v0.3l0.16,0.03L57.3,63.2l-0.18-0.02L57.43,62.9z M54.23,63.06l-0.51-0.06l0.01-0.01l0.51,0.06L54.23,63.06z
		 M52.83,62.9h-0.01l-0.22-0.02l0.01-0.02l0.22,0.04V62.9l0.01-0.01l0.1,0.01l-0.02,0.01L52.83,62.9z M52.88,62.96l-0.01,0.02
		l-0.07-0.01l0.01-0.03L52.88,62.96z M52.78,62.94l-0.01,0.03l-0.22-0.04l0.01-0.01L52.78,62.94z M53.26,62.21l0.01,0.01l-0.23-0.01
		H53.26z M53.05,62.18l0.01-0.02l0.21,0.01v0.01H53.05z M53.52,62.59l0.02-0.02l0.48,0.05L54,62.64L53.52,62.59z M54.48,62.72
		l-0.01,0.01L54,62.67L54.48,62.72z M53.1,62.72l0.01-0.01l0.28,0.04L53.1,62.72z M53.36,62.76v0.01l-0.28-0.04L53.36,62.76z
		 M53.12,62.68l0.29,0.02v0.01L53.12,62.68z M53.14,62.65v-0.01l0.29,0.04L53.14,62.65z M53.18,62.62l0.28,0.02v0.01L53.18,62.62z
		 M53.21,62.57l0.02-0.02l0.29,0.02l-0.01,0.02L53.21,62.57z M53.24,62.52l0.02-0.02l0.29,0.04l-0.01,0.01L53.24,62.52z
		 M53.33,62.43l0.01-0.01l0.29,0.02l-0.01,0.01L53.33,62.43z M53.35,62.39l0.31,0.01l-0.01,0.01L53.35,62.39z M53.36,62.35
		l-0.14-0.01l0.01-0.01l0.13,0.01V62.35z M53.34,62.38l-0.01,0.01l-0.13-0.01H53.34z M53.31,62.41l-0.01,0.01l-0.13-0.01l0.01-0.01
		L53.31,62.41z M53.24,62.5l-0.01,0.02l-0.12-0.01l0.01-0.02L53.24,62.5z M53.21,62.55l-0.02,0.02l-0.11-0.01l0.01-0.02L53.21,62.55
		z M53.16,62.61l-0.01,0.01h-0.11l0.01-0.02L53.16,62.61z M53.13,62.64l-0.01,0.01l-0.11-0.01l0.01-0.01L53.13,62.64z M53.08,62.7
		l-0.01,0.01l-0.1-0.01v-0.01L53.08,62.7z M53.06,62.73l-0.01,0.01l-0.08-0.01H53.06z M53.01,62.8l-0.02,0.02l-0.1-0.01l0.02-0.02
		L53.01,62.8z M52.98,62.85v0.01l0.01-0.01l0.29,0.04l-0.01,0.01l-0.29-0.04h-0.01l-0.1-0.01l0.01-0.01L52.98,62.85z M53.01,62.82
		l0.01-0.02l0.29,0.04l-0.01,0.02L53.01,62.82z M53.34,62.84l0.46,0.05l-0.01,0.02l-0.47-0.05L53.34,62.84z M53.39,62.78l0.47,0.05
		l-0.01,0.01L53.39,62.78z M53.41,62.75v-0.01l0.47,0.05v0.01L53.41,62.75z M53.43,62.72V62.7l0.47,0.06L53.43,62.72z M53.46,62.69
		v-0.01l0.47,0.05L53.46,62.69z M53.55,62.56l0.02-0.02l0.48,0.05l-0.02,0.01L53.55,62.56z M53.64,62.45l0.01-0.01l0.49,0.04
		l-0.02,0.03L53.64,62.45z M53.68,62.41V62.4l0.13,0.01l0.36,0.02l-0.01,0.01L53.68,62.41z M53.68,62.38l-0.3-0.02l0.01-0.01
		l0.3,0.01L53.68,62.38z M53.24,62.3h0.11l0.04,0.01L53.24,62.3z M53.26,62.24l-0.01,0.01l-0.2-0.01v-0.01L53.26,62.24z
		 M53.21,62.33v0.01l-0.19-0.01l0.01-0.01L53.21,62.33z M53.16,62.4v0.01l-0.24-0.02v-0.01L53.16,62.4z M53.13,62.43v0.01
		l-0.23-0.02L53.13,62.43z M53.1,62.49l-0.01,0.02l-0.24-0.02l0.02-0.02L53.1,62.49z M53.07,62.53l-0.02,0.02l-0.08-0.01l-0.15-0.01
		l0.01-0.02L53.07,62.53z M53.02,62.59l-0.01,0.01l-0.23-0.01l0.01-0.02L53.02,62.59z M53,62.63v0.01l-0.24-0.02l0.01-0.01L53,62.63
		z M52.96,62.69l-0.01,0.01l-0.23-0.02l0.01-0.01L52.96,62.69z M52.94,62.72v0.01l-0.23-0.02v-0.01L52.94,62.72z M52.89,62.79
		l-0.01,0.02l-0.23-0.02l0.02-0.03L52.89,62.79z M52.85,62.84v0.01l-0.23-0.02l0.01-0.01L52.85,62.84z M52.95,62.9l0.29,0.04v0.01
		l0.02-0.01l0.45,0.06l-0.01,0.01l-0.46-0.06h-0.01l-0.29-0.02L52.95,62.9z M53.29,62.9l0.01-0.01l0.46,0.05v0.01L53.29,62.9z
		 M53.77,62.94l0.01-0.01l0.51,0.06L53.77,62.94z M54.32,62.96l-0.51-0.05l0.01-0.02l0.51,0.06L54.32,62.96z M54.36,62.9l-0.07-0.01
		l-0.42-0.05l0.01-0.01l0.49,0.05L54.36,62.9z M54.39,62.85l-0.48-0.05v-0.01l0.49,0.05L54.39,62.85z M53.95,62.74l0.01-0.01
		l0.47,0.05L53.95,62.74z M54.65,62.79l0.47,0.06l-0.66-0.06l0.01-0.01L54.65,62.79z M54.51,62.69l-0.48-0.05l0.01-0.02l0.48,0.05
		L54.51,62.69z M54.54,62.64l-0.48-0.05l0.02-0.01l0.47,0.05L54.54,62.64z M54.62,62.55l-0.47-0.05l0.01-0.01l0.47,0.04L54.62,62.55
		z M54.18,62.45l0.01-0.01l0.46,0.05L54.18,62.45z M54.41,62.4l0.01,0.01l-0.19-0.01l0.01-0.01L54.41,62.4z M54.28,62.34l0.01-0.01
		l0.21,0.01v0.01L54.28,62.34z M55.67,62.27l-0.13-0.01h0.14L55.67,62.27z M55.75,61.92l0.01-0.21l0.13,0.16h0.01l0.06,0.11
		l0.05,0.19h-0.28l-0.01-0.13L55.75,61.92z M55.69,62.21l0.01,0.01h-0.17l-0.01-0.02L55.69,62.21z M55.28,61.82l0.16,0.31l0.02-0.01
		l0.01,0.05l-0.24-0.01L55.28,61.82z M55.22,62.2h0.25v0.02h-0.25V62.2z M55.22,62.38l0.57,0.04l-0.58-0.02L55.22,62.38z
		 M55.78,62.49h0.04l0.91,0.08l-0.94-0.07l0.01,0.02h-0.01V62.49l-1.06-0.05l0.01-0.02L55.78,62.49z M55.17,62.28l-0.33-0.01v-0.01
		L55.17,62.28z M55.16,61.81l-0.02,0.35h-0.23L55.16,61.81z M55.16,62.2v0.01h-0.29l0.01-0.01H55.16z M54.83,62.18h0.04l-0.02,0.02
		h-0.01V62.18z M55.11,62.38l-0.35-0.01v-0.01L55.11,62.38z M54.8,62.27h-0.15l-0.02-0.02l0.17,0.01V62.27z M54.79,62.21h-0.22
		l-0.01-0.02h0.23V62.21z M54.59,61.89v-0.05l0.04,0.05l-0.05,0.06L54.59,61.89z M54.56,62.04h0.01v-0.05l0.07-0.07l0.06,0.1
		L54.73,62l0.04,0.11l0.01,0.05h-0.22l-0.01-0.06L54.56,62.04z M54.54,62.34l0.21,0.01l-0.01,0.01l-0.19-0.01V62.34z M54.7,62.41
		l-0.01,0.01l-0.25-0.01l0.05-0.01L54.7,62.41z M54.5,62.26h-0.15l0.01-0.02l0.12,0.01L54.5,62.26z M54.48,62.18v0.02H54.4
		l0.01-0.02H54.48z M54.44,62.16l0.05-0.06v0.06H54.44z M54.32,62.01l0.04-0.17l0.07,0.1l0.02-0.01l0.02,0.08v0.01h0.01v0.05
		l-0.07,0.07h-0.14L54.32,62.01z M54.26,62.18h0.13l-0.01,0.01h-0.12V62.18z M54.26,62.23h0.1l-0.02,0.02h-0.07V62.23z M54.27,62.33
		v0.01l-0.05-0.01H54.27z M54.15,62.1l0.01,0.04v0.01h-0.01V62.1z M54.09,62.06l0.01,0.08h-0.22l0.16-0.19L54.09,62.06z M53.87,62.1
		l0.01-0.12h0.01l0.02-0.18l0.1,0.16l-0.16,0.19L53.87,62.1z M53.86,62.17h0.25v0.02l-0.24-0.01h-0.01V62.17z M53.86,62.22h0.27
		v0.02h-0.01l-0.25-0.01V62.22z M53.87,62.3l0.27,0.02l-0.28-0.01L53.87,62.3z M54.22,62.39l-0.01,0.01l-0.37-0.01l-0.13-0.01
		l0.01-0.01L54.22,62.39z M53.74,62.33h0.01v0.01L53.74,62.33z M53.81,61.8v0.04l-0.01-0.01L53.81,61.8z M53.57,62.04l0.01-0.11
		h0.01l0.01-0.13l0.01-0.02l0.1,0.12l-0.14,0.19V62.04z M53.57,62.12l0.17-0.22l0.04,0.1l0.04,0.14h-0.24V62.12z M53.57,62.16
		l0.24,0.01v0.01l-0.24-0.01V62.16z M53.55,62.21l0.25,0.01l-0.02,0.01h-0.22l-0.01-0.01V62.21z M53.51,62.06l0.01,0.08h-0.04
		L53.51,62.06z M53.5,62.21h0.02v0.01h-0.04L53.5,62.21z M53.41,62.29h-0.04v-0.01h0.04V62.29z M53.4,62.22h-0.08v-0.01h0.08V62.22z
		 M53.36,62.14l0.01-0.02l0.01,0.02H53.36z M53.35,62.01l0.02,0.07l-0.04,0.05h-0.02L53.3,62.1l0.01-0.02l-0.02-0.1h0.02l-0.05-0.12
		l0.06-0.1l0.01,0.1L53.35,62.01z M53.24,61.76l0.01-0.06l0.03-0.04l0.05,0.06l-0.07,0.12l-0.01-0.02l0.01-0.01L53.24,61.76z
		 M53.19,61.97L53.21,62l0.02-0.01l0.02,0.11l0.01,0.04h-0.19L53.19,61.97z M53.08,62.01l0.04-0.17l0.06,0.11l-0.12,0.18h-0.01
		l0.01-0.02L53.08,62.01z M52.18,62.88l-0.04-0.05l0.04,0.02l0.16,0.02v-0.11h0.01v-0.01l0.06,0.01v-0.01H52.4l-0.01-0.08H52.3
		l-0.06,0.02l0.64-0.94l0.02-0.02l0.01-0.02l0.1-0.15l0.04,0.17L53,61.99L53.01,62L53,62.1v0.05l-0.16-0.01v0.01L53,62.16v0.02
		h-0.18v0.01H53v0.01l-0.18-0.01h-0.05l0.01,0.01h-0.02v0.01l0.23,0.01v0.01l-0.3-0.01v0.01l0.29,0.02l-0.29-0.01v0.01l0.27,0.02
		l-0.27-0.01v0.01h-0.12v0.01l0.36,0.04l-0.28-0.01v0.01l-0.11-0.01v0.01l0.36,0.04l-0.01,0.01l-0.37-0.04v0.01l0.36,0.04v0.01
		l-0.36-0.02v0.02h-0.02v0.01l0.35,0.04l-0.01,0.02l-0.34-0.02v0.01l0.33,0.04l-0.02,0.02l-0.31-0.04v0.04l0.3,0.04l-0.02,0.02
		l-0.3-0.04v0.02l0.29,0.02v0.01l-0.29-0.04h-0.01v0.02l0.29,0.02l-0.01,0.01l-0.29-0.02v0.01l0.28,0.04v0.01l-0.28-0.04v0.02
		l0.27,0.02l-0.01,0.01l-0.25-0.04h-0.01v0.04h0.01v0.01h-0.01v0.02l0.23,0.02l-0.02,0.03l-0.19-0.01v0.01l0.18,0.02v0.01
		l-0.24-0.02v0.01l-0.01-0.01v0.02l0.23,0.02l-0.01,0.02l-0.22-0.02v0.05l0.18,0.02v0.01L52.18,62.88z M52.17,63.89l0.1-0.16
		l0.01,0.01L52.17,63.89z M52.26,63.69l-0.17-0.05l0.37-0.57l0.19,0.05L52.26,63.69z M52.29,63.7l0.39-0.57l0.06,0.01L52.3,63.7
		H52.29z M52.57,63.79l-0.25-0.07l0.45-0.57h0.01c0.04,0.01,0.12,0.02,0.27,0.05L52.57,63.79z M53.01,62.99l-0.12-0.01l0.01-0.02
		l0.29,0.04l-0.02,0.02L53.01,62.99z M53.19,63.02l0.01-0.01l0.46,0.05l-0.01,0.03L53.19,63.02z M53.59,63.96
		c-0.28-0.07-0.47-0.08-0.59-0.08l0.51-0.62c0.17,0.02,0.35,0.05,0.53,0.07L53.59,63.96z M54.18,63.14l-0.52-0.06l0.02-0.03
		l0.51,0.06L54.18,63.14z"/>
	<polygon class="st0" points="56.75,62.45 55.96,62.4 55.96,62.39 56.73,62.43 	"/>
	<polygon class="st0" points="56.95,62.81 56.95,62.84 55.72,62.72 55.72,62.69 55.73,62.69 	"/>
	<polygon class="st0" points="56.98,63.11 56.98,63.14 56.91,63.13 55.63,62.98 55.63,62.96 	"/>
	<polygon class="st0" points="56.96,62.86 55.69,62.74 55.69,62.73 56.95,62.85 	"/>
	<polygon class="st0" points="56.9,62.69 55.76,62.58 55.76,62.56 56.89,62.67 	"/>
	<polygon class="st0" points="56.97,62.91 55.69,62.78 55.69,62.75 56.96,62.88 	"/>
	<polygon class="st0" points="56.94,62.8 55.73,62.69 55.73,62.67 56.85,62.76 55.74,62.63 55.74,62.59 56.22,62.65 56.91,62.71 	
		"/>
	<polygon class="st0" points="31.01,56.57 31.01,56.58 30.23,56.51 30.23,56.5 	"/>
	<polygon class="st0" points="39.31,62.07 39.31,62.12 37.15,61.93 37.15,61.89 	"/>
	<polygon class="st0" points="30.24,56.49 30.95,56.55 30.26,56.46 30.26,56.44 30.56,56.47 30.98,56.51 31,56.57 	"/>
	<polygon class="st0" points="30.8,56.26 30.46,56.26 30.46,56.24 30.78,56.24 	"/>
	<polygon class="st0" points="30.98,56.76 30.18,56.68 30.18,56.65 	"/>
	<polygon class="st0" points="31.03,56.76 31.03,56.78 30.98,56.76 	"/>
	<polygon class="st0" points="31.02,56.61 30.22,56.52 30.22,56.51 30.23,56.51 31,56.59 	"/>
	<polygon class="st0" points="30.76,56.24 30.49,56.22 30.49,56.21 30.58,56.22 30.71,56.22 	"/>
	<polygon class="st0" points="30.22,56.58 30.59,56.62 30.22,56.57 30.22,56.55 31.02,56.64 31.03,56.68 	"/>
	<polygon class="st0" points="31.03,56.69 31.03,56.72 30.23,56.62 30.23,56.61 	"/>
	<polygon class="st0" points="31.02,56.62 31.02,56.63 30.22,56.55 30.22,56.53 	"/>
	<polygon class="st0" points="30.98,56.49 30.27,56.43 30.27,56.41 30.97,56.47 	"/>
	<polygon class="st0" points="38.61,61.07 37.84,61.05 37.84,61.01 38.09,61.02 38.09,61.01 38.48,61.01 	"/>
	<polygon class="st0" points="39.33,62.24 37.13,62.05 37.13,62.01 37.16,62.01 37.15,62 37.14,61.99 37.13,61.93 37.15,61.93 
		39.32,62.15 	"/>
	<polygon class="st0" points="39.35,62.33 37.16,62.15 37.16,62.11 39.33,62.29 	"/>
	<polygon class="st0" points="38.68,61.12 37.79,61.12 37.79,61.09 38.63,61.09 	"/>
	<polygon class="st0" points="38.85,61.25 37.57,61.22 37.57,61.18 38.8,61.22 	"/>
	<polygon class="st0" points="38.79,61.21 37.68,61.17 37.68,61.13 37.72,61.13 38.72,61.15 	"/>
	<polygon class="st0" points="38.9,61.3 37.57,61.25 37.57,61.22 38.86,61.27 	"/>
	<polygon class="st0" points="42.65,38.69 40.94,38.92 40.54,35.92 42.21,35.7 42.28,36.19 41.21,36.34 41.3,37.04 42.32,36.91 
		42.38,37.4 41.36,37.53 41.47,38.34 42.58,38.2 	"/>
	<polygon class="st0" points="33.95,58.77 33.93,58.8 33.89,58.77 33.93,58.73 	"/>
	<polygon class="st0" points="38.95,61.35 37.78,61.31 37.57,61.3 37.57,61.27 38.91,61.31 	"/>
	<path class="st0" d="M30.41,42.23c-0.05-0.07-0.12-0.18-0.21-0.31l-0.12-0.18l-0.1-0.16c-0.1-0.14-0.2-0.23-0.3-0.26
		c-0.1-0.03-0.22-0.01-0.36,0.04c0.13-0.13,0.19-0.25,0.21-0.41c0.01-0.15-0.04-0.31-0.14-0.49c-0.12-0.23-0.28-0.36-0.47-0.4
		c-0.19-0.05-0.39,0-0.62,0.12l-0.99,0.57l1.51,2.63l0.53-0.3l-0.63-1.11L29,41.78l0.29-0.05l0.22,0.19l0.3,0.51l0.1,0.13l0.12,0.11
		l0.58-0.33v-0.02L30.41,42.23z M28.98,41.19c-0.04,0.1-0.12,0.18-0.25,0.25l-0.22,0.13l-0.43-0.76l0.25-0.15
		c0.25-0.13,0.43-0.08,0.58,0.16C28.99,40.97,29.01,41.09,28.98,41.19"/>
	<polygon class="st0" points="35.68,40.2 35.08,40.41 34.11,37.53 34.7,37.34 	"/>
	<path class="st0" d="M27.58,42.66l0.16-0.3c0.04-0.11,0.04-0.23,0.01-0.35c-0.04-0.12-0.08-0.24-0.17-0.37l-0.23-0.25l-0.27-0.17
		c-0.11-0.04-0.22-0.05-0.33-0.02c-0.12,0.01-0.25,0.06-0.37,0.14l-0.89,0.59l1.67,2.54l0.52-0.34L27,43.11l0.28-0.18
		C27.38,42.85,27.49,42.76,27.58,42.66 M26.97,42.58l-0.22,0.16l-0.52-0.77l0.22-0.14c0.13-0.08,0.24-0.11,0.34-0.07
		c0.1,0.02,0.18,0.11,0.28,0.23c0.08,0.13,0.11,0.25,0.1,0.35C27.14,42.43,27.08,42.52,26.97,42.58"/>
	<path class="st0" d="M29.12,54.94l-0.34,0.51l0.35-0.49L29.12,54.94z M29.42,54.84l-0.35,0.55l0.36-0.55H29.42z M29.89,54.83
		l-0.37,0.48l0.39-0.47L29.89,54.83z M30.08,54.89l-0.37,0.48l0.39-0.48H30.08z M32.19,56.98l0.14-0.02l0.04-0.04l-0.94-0.1
		l0.05-0.22l0.19-0.11l0.08-0.27l1.09-0.98l-0.01-0.01l-1.34,1.19l-0.06-0.01l-0.05-0.04l-0.05,0.04l-0.07,0.07l0.07,0.01l0.01,0.02
		l-0.13,0.08l-0.08,0.15l-0.04,0.04l-0.1-0.01l-0.82-0.1v0.07h-0.03v0.01h0.04l-0.02,0.06h-0.02v0.02h0.02l0.8,0.05l-0.01,0.01
		l-0.79-0.05l-0.87-0.1h-0.01l-0.33-0.04l0.01-0.01l0.33,0.04v0.01l0.01-0.01l0.82,0.1v-0.04l-0.8-0.1v-0.01l0.8,0.11h0.02
		l0.01-0.02l-0.77-0.1l0.74,0.08v-0.02h0.01v-0.02h0.02v-0.02h-0.02V56.7l-0.74-0.08h-0.05l-0.27-0.04l0.31,0.02v0.01l0.01-0.01
		l0.71,0.08l0.01-0.02h-0.01l0.01-0.02l0.01-0.01h0.04v0.01l0.85,0.11v-0.04l-0.83-0.08v-0.02l-0.05-0.01l0.01-0.01l-0.4-0.02
		l-0.29-0.04h-0.01l-0.29-0.04l0.3,0.02v0.01l0.01-0.01l0.68,0.07l0.01-0.02L29.5,56.5l0.01-0.01l0.66,0.06v-0.02l-0.65-0.06v-0.01
		l0.65,0.07V56.5l-0.64-0.06l0.69,0.05v-0.02h-0.04l-0.63-0.06h-0.01l-0.29-0.02h-0.01l-0.3-0.04l0.31,0.02v0.01l0.01-0.01
		l0.29,0.03v0.01l0.01-0.01l0.64,0.05v-0.02h0.01v-0.02h0.05l0.01-0.03v0.03h-0.01v0.01l0.7,0.06l-0.04-0.05h-0.06l-0.57-0.06v-0.01
		h0.06l-0.06-0.01v-0.01l0.06,0.01v0.01l0.57,0.06l-0.01-0.02h-0.01l-0.01-0.02l-0.35-0.03l-0.16-0.01l-0.05-0.01v-0.02h0.01v-0.02
		h0.05v-0.02h-0.15v-0.01l0.15,0.01h0.05v-0.02l-0.19-0.01h0.35v-0.02h-0.12l-0.04-0.01l-0.02-0.12v-0.01l-0.01-0.06l0.01-0.01
		l-0.12-0.17v-0.01l-0.04-0.17l0.11-0.16l0.01-0.17v-0.02l0.39-0.54l-0.4,0.54l-0.17,0.23L30.2,55.5l-0.06-0.01l-0.02,0.04
		l-0.01,0.01l-0.02,0.06l0.06-0.01l-0.15,0.21l-0.01-0.11l0.12-0.15l0.02-0.18l0.01-0.01l-0.01-0.01l0.44-0.51l-0.01-0.01
		l-0.43,0.52v0.03l-0.05,0.16l-0.12,0.14v-0.04l-0.01-0.01l0.02-0.01l-0.02-0.01l0.18-0.23l-0.21,0.23l-0.02-0.02l-0.04,0.04
		l-0.04,0.05l0.05-0.01l-0.18,0.22l-0.01,0.01l-0.05,0.07l-0.04-0.06l-0.01-0.01l-0.01-0.16l0.11-0.14l0.02-0.16l0.01-0.02
		l-0.01-0.01l-0.01,0.01v0.02l-0.01,0.02l-0.04,0.12l-0.12,0.13v-0.02l0.06-0.06l-0.02-0.01l0.12-0.16l-0.13,0.16h-0.05l-0.04-0.01
		l0.04-0.05l0.04-0.17v-0.04h-0.01l-0.01,0.01v0.03l-0.05,0.14l-0.11,0.13v-0.04l0.05-0.04l-0.02-0.02l0.13-0.18l-0.15,0.18
		l-0.05,0.01l-0.04-0.01l-0.02,0.02l-0.01,0.01l-0.01-0.01l0.01-0.01l0.02-0.11l0.33-0.47l-0.01-0.01l-0.3,0.43v-0.04l-0.02,0.02
		l0.01,0.01l-0.04,0.07l-0.01,0.04v0.04l-0.01,0.01h-0.01l0.02-0.05l-0.04,0.05h-0.01v0.04l-0.01,0.01l-0.06,0.05l0.01-0.02
		l0.04-0.04l-0.07-0.01l-0.02-0.01l0.01-0.01l0.01-0.12l0.01-0.02v-0.02l-0.01,0.01l-0.02,0.05l-0.08,0.13h-0.08l-0.04-0.01
		l-0.02,0.02l-0.04,0.07l0.06-0.01l0.02,0.02l-0.02,0.06l-0.01-0.01h-0.06l-0.01-0.06l-0.01-0.01l0.02-0.02l0.04-0.14v-0.02h-0.01
		l-0.13,0.18h-0.06l-0.04-0.01l-0.02,0.02l-0.04,0.06h0.06l0.01,0.02l-0.06,0.07l-0.02,0.07l-0.01,0.01h-0.01v0.02l-0.41,0.59
		l-0.09,0.02l0.01,0.02h-0.02l0.02,0.05l-0.48,0.7h0.01l0.48-0.69l0.04,0.07l0.17,0.05l-0.4,0.62h0.01l0.4-0.6l0.12,0.02l-0.31,0.47
		l0.33-0.46h0.04l-0.36,0.46l-0.06,0.1l0.43-0.54h0.01l0.16,0.02l-0.44,0.54h0.02l0.42-0.54l0.28,0.04l-0.46,0.54h0.02l0.45-0.54
		c0.11,0.01,0.22,0.04,0.34,0.05l-0.37,0.52l0.39-0.52c0.42,0.05,0.95,0.11,1.4,0.12l0.22,0.01l-0.22,0.19l0.01,0.01l0.23-0.2
		c0.75,0.04,1.24,0.06,1.24,0.06l0.21-0.06l0.05-0.06l-0.16,0.04l-1.22-0.08l0.01-0.01L32.19,56.98z M31.54,56.47l-0.02-0.04
		l0.23-0.21l-0.11,0.24l-0.16,0.07l-0.02-0.04L31.54,56.47z M31.28,56.63l-0.12,0.1l0.07-0.08L31.28,56.63l0.02-0.01v0.19h-0.08
		l-0.11-0.01L31.28,56.63z M30.21,56.23l-0.08-0.01h0.08V56.23z M30.22,56.2h-0.1v-0.01h0.1V56.2z M30.34,55.98h0.02l0.02,0.07
		l0.04,0.12h-0.17l-0.01-0.08L30.26,56l0.01-0.12L30.34,55.98z M30.22,55.54l0.05-0.05l-0.05-0.01l0.16-0.21l-0.05,0.16l-0.11,0.16
		V55.54z M30.15,55.59l0.03,0.02l-0.08,0.05L30.15,55.59z M30,55.81l0.1-0.12l0.05-0.04l0.06,0.16H30.2V56h0.01v0.08l0.01,0.08
		h-0.11v-0.05l0.02-0.01l-0.04-0.07l-0.01-0.02h-0.01L30,55.86V55.81z M29.97,55.95l0.1,0.19l0.01-0.01l0.01,0.04l-0.16-0.01
		L29.97,55.95z M29.93,56.18h0.16v0.01h-0.16V56.18z M29.93,56.23l0.11,0.01h-0.11V56.23z M29.86,56.3l-0.22-0.01v-0.01l0.23,0.01
		L29.86,56.3z M29.66,56.22v0.01h-0.08l-0.02-0.01H29.66z M29.52,56.18v-0.01l0.13,0.01v0.01L29.52,56.18z M29.69,56.23v-0.01
		l0.2,0.01H29.69z M29.69,56.18h0.01v0.01h-0.01V56.18z M29.89,56.2h-0.18l0.01-0.01h0.17V56.2z M29.87,56.16h-0.13l0.16-0.22
		L29.87,56.16z M29.87,55.64v0.02l-0.07,0.06L29.87,55.64z M29.68,55.88l0.01-0.01l0.01-0.01l0.11-0.11l0.05-0.04l0.05,0.17h-0.01
		v0.04l-0.17,0.24h-0.04l-0.01-0.02v-0.03l-0.01-0.06h0.01l-0.06-0.11L29.68,55.88z M29.53,55.99v-0.02L29.56,56l-0.04,0.02
		L29.53,55.99z M29.51,56.12l0.01-0.04v-0.04L29.57,56l0.04,0.06h0.01l0.02,0.07l0.01,0.02h-0.15V56.12z M29.63,56.28v0.01
		l-0.12-0.01H29.63z M29.31,56.73l-0.33-0.04h-0.01l-0.29-0.04h-0.01l-0.17-0.02v-0.01l0.18,0.03v0.01l0.01-0.01l0.29,0.04v0.01
		L29,56.68l0.31,0.04V56.73z M28.53,56.47v0.01l0.01-0.01l0.06,0.01h-0.08l-0.13-0.02L28.53,56.47z M28.4,56.45v-0.01l0.13,0.03
		L28.4,56.45z M28.83,56.47l-0.18-0.02l0.18,0.01V56.47z M29.12,56.51v0.01l-0.29-0.04L29.12,56.51z M28.6,56.51V56.5l0.18,0.02
		L28.6,56.51z M29.07,56.57l-0.01,0.01l-0.28-0.04L29.07,56.57z M28.61,56.49l0.18,0.01v0.01L28.61,56.49z M28.63,56.47v-0.01
		l0.18,0.02L28.63,56.47z M28.58,56.41l0.01-0.02l0.07,0.01l-0.01,0.01H28.58z M28.64,56.45h-0.07v-0.01h0.07V56.45z M28.61,56.46
		v0.01l-0.06-0.01H28.61z M28.59,56.5v0.01l-0.06-0.01H28.59z M28.51,56.5l-0.13-0.01v-0.01L28.51,56.5z M28.51,56.51v0.01
		l0.01-0.01l0.05,0.01h-0.07l-0.13-0.02L28.51,56.51z M28.47,56.56v0.01l0.01-0.01h0.06l-0.01,0.02l-0.06-0.01h-0.01l-0.13-0.01
		l0.01-0.02L28.47,56.56z M28.53,56.59l0.18,0.01v0.01l-0.18-0.01V56.59z M28.72,56.62l0.29,0.03v0.01L28.72,56.62z M29.02,56.65
		v-0.01l0.31,0.04L29.02,56.65z M29.37,56.65l0.7,0.07l-0.7-0.06V56.65z M29.36,56.65v0.01l-0.33-0.04h-0.01l-0.29-0.04h-0.01
		l-0.18-0.01l0.01-0.02l0.18,0.02v0.01l0.01-0.01l0.29,0.04v0.01l0.01-0.01L29.36,56.65z M28.8,56.53v-0.01l0.29,0.04L28.8,56.53z
		 M29.41,56.59l-0.3-0.04l0.3,0.02V56.59z M30.06,56.65l-0.64-0.06v-0.01L30.06,56.65z M29.44,56.55l-0.3-0.02v-0.01L29.44,56.55z
		 M29.48,56.5l-0.3-0.04h-0.01l-0.3-0.03h-0.01l-0.19-0.01l0.02-0.03l0.18,0.03v0.01l0.01-0.01l0.3,0.02v0.01l0.01-0.01l0.29,0.04
		V56.5z M29.21,56.43v0.01l0.01-0.01l0.29,0.02v0.01l-0.3-0.03h-0.01l-0.3-0.02l0.01-0.02L29.21,56.43z M28.65,56.32h0.08v0.01
		l0.01-0.01l0.18,0.01v0.01l-0.19-0.01h-0.01L28.65,56.32z M28.71,56.34h-0.07v-0.01L28.71,56.34z M28.77,56.27v0.01h-0.01
		l-0.07-0.01H28.77z M28.75,56.17h0.04v0.01h-0.04V56.17z M28.7,56.23h0.01v0.01H28.7V56.23z M28.57,56.2v-0.01l0.15,0.01H28.57z
		 M28.7,56.22h-0.13v-0.01L28.7,56.22z M28.66,56.27h-0.12l0.01-0.01L28.66,56.27z M28.96,56.32h0.08l0.22,0.02L28.96,56.32z
		 M29.47,56.22h-0.08l0.01-0.01h0.07V56.22z M29.39,55.68l0.05-0.01l0.01,0.01v0.02l-0.04,0.02l-0.02,0.01V55.68z M29.41,55.75
		l0.02-0.01l0.04,0.16v0.05l-0.07-0.12l-0.01-0.05L29.41,55.75z M29.36,56.07l0.02-0.11l0.04,0.06h0.01l0.02,0.04v0.01l0.01,0.01
		l-0.01,0.02v0.04l0.01,0.01h-0.14L29.36,56.07z M29.33,56.17h0.08v0.01l0.01-0.01h0.05v0.01h-0.14V56.17z M29.33,56.21h0.05v0.01
		h-0.05V56.21z M29.25,56.12l0.01,0.02v0.01h-0.01V56.12z M29.27,56.17v0.01l-0.01-0.01H29.27z M29.24,56.21v0.01l-0.12-0.01V56.2
		L29.24,56.21z M29.09,56.17h0.15v0.01L29.09,56.17z M29.23,56.16h-0.15l0.1-0.13h0.01l0.02,0.07L29.23,56.16z M29.15,55.81
		l0.01-0.01l0.01-0.01l0.04,0.04l0.01,0.11v0.04l-0.06-0.12h-0.01V55.81z M29.07,56.12l0.01-0.07h0.01l0.01-0.11l0.06,0.08
		l-0.1,0.12V56.12z M29.07,56.23l0.2,0.01h-0.2V56.23z M29.05,55.87v0.05l-0.01,0.02h0.01l-0.01,0.01v-0.01h-0.01l-0.05-0.11
		l0.05-0.07l-0.06,0.06l-0.01-0.06l0.01-0.01l0.05-0.02l0.01,0.02v0.01L29.05,55.87z M29.02,55.47l-0.01,0.05l-0.07,0.08
		L29.02,55.47z M28.95,55.65h0.07l0.01,0.02l-0.08,0.06l-0.01-0.06L28.95,55.65z M28.89,56.09l0.02-0.15v-0.02h0.01L28.99,56
		l-0.1,0.11V56.09z M28.89,56.14L29,56l0.02,0.06l0.01,0.08h-0.15V56.14z M28.89,56.16l0.16,0.01h-0.16V56.16z M28.89,56.2h0.14
		v0.01h-0.14V56.2z M28.86,56.1l0.01,0.05h-0.02L28.86,56.1z M28.84,56.2h0.02v0.01h-0.02V56.2z M28.98,56.28v0.01l0.01-0.01
		l0.31,0.02v0.01l0.01-0.01l0.11,0.01h-0.13l-0.23-0.01l-0.08-0.01h-0.01l-0.18-0.01H28.98z M28.75,55.89v0.07l0.01,0.11l0.01,0.05
		v0.01l0.01,0.01h-0.05v-0.04l-0.01-0.06h0.01l-0.04-0.07v-0.01l-0.01-0.01l0.01-0.01l-0.01-0.02l0.01-0.05l0.01-0.01L28.75,55.89z
		 M28.71,55.73l-0.02,0.04l-0.02,0.1v0.02h-0.01v-0.15l0.05-0.06v0.02L28.71,55.73z M28.66,56.04v0.03h0.01l0.02,0.06v0.02h-0.11
		L28.66,56.04z M28.61,55.69l0.02-0.02l0.02-0.02v-0.01l0.12-0.16l-0.06,0.13l-0.11,0.11V55.69z M28.59,56.07l0.02-0.11l0.04,0.06
		l-0.07,0.11L28.59,56.07z M28.58,56.16l0.13,0.01v0.01l-0.15-0.01L28.58,56.16z M28.25,56.64l-0.23-0.03v-0.01L28,56.58h0.01
		l0.01,0.02l0.1,0.01v-0.07h0.05v-0.01h-0.01v-0.05h-0.05l-0.05,0.01l0.41-0.59l0.01-0.01l0.01-0.01l0.06-0.08l0.01,0.1l-0.02,0.17
		v0.08h-0.1v0.01h0.1v0.01h-0.12v0.01h0.12v0.01l-0.12-0.01H28.4v0.01l0.13,0.01h-0.19l0.01,0.01v0.02h-0.08v0.01l0.23,0.01h-0.24
		v0.01l0.23,0.01v0.01l0.01-0.01h0.04l0.11,0.01v0.01l-0.16-0.01h-0.01l-0.22-0.02h-0.01v0.01l0.22,0.02l-0.22-0.01v0.01h-0.01v0.01
		l0.22,0.03v0.01l0.01-0.01l0.14,0.01v0.01l0.01-0.01l0.07,0.01v0.01l0.01-0.01l0.19,0.01l-0.01,0.01l-0.19-0.01h-0.01l-0.07-0.01
		h-0.01l-0.15-0.01h-0.01l-0.2-0.01v0.01l0.19,0.01v0.01l0.01-0.01l0.14,0.01l-0.01,0.02l-0.05-0.01l-0.1-0.01h-0.01l-0.18-0.03
		h-0.01v0.03l0.18,0.02v0.01l0.01-0.01l0.15,0.02l-0.01,0.01l-0.14-0.02h-0.01l-0.18-0.01v0.01l0.18,0.01v0.01l-0.18-0.02h-0.01
		v0.01l0.18,0.03l-0.19-0.01v0.01l0.18,0.01v0.01l-0.18-0.02v0.06l0.14,0.01l-0.01,0.02l-0.12-0.01v0.01l0.11,0.01v0.01l0.01-0.01
		l0.15,0.01l0.06,0.01h-0.07l-0.14-0.01h-0.01l-0.14-0.02v0.02l0.14,0.01v0.01l0.01-0.01l0.13,0.01l-0.01,0.01l-0.13-0.01h-0.01
		l-0.13-0.01v0.02l0.11,0.01V56.64z M28.49,56.62v0.01h-0.06l0.01-0.01H28.49z M28.65,56.7l-0.11-0.01l-0.07-0.01h-0.01l-0.05-0.01
		H28.4l-0.13-0.02l0.14,0.01l0.06,0.01v0.01l0.01-0.01l0.17,0.02V56.7z M28.66,56.7v-0.01l0.29,0.03l-0.01,0.01L28.66,56.7z"/>
	<path class="st0" d="M37.55,38.73c-0.04-0.19-0.08-0.4-0.15-0.63c-0.06-0.22-0.14-0.41-0.22-0.59c-0.07-0.18-0.16-0.34-0.27-0.45
		c-0.12-0.12-0.24-0.18-0.4-0.22c-0.16-0.05-0.34-0.02-0.56,0.04c-0.22,0.06-0.39,0.16-0.5,0.27c-0.11,0.11-0.18,0.24-0.2,0.4
		c-0.04,0.16-0.04,0.33,0,0.52c0.04,0.19,0.08,0.4,0.15,0.61c0.07,0.23,0.14,0.42,0.22,0.6c0.07,0.18,0.17,0.33,0.27,0.45
		c0.11,0.11,0.24,0.18,0.39,0.21c0.16,0.04,0.34,0.02,0.57-0.04c0.22-0.06,0.37-0.16,0.49-0.27c0.11-0.11,0.18-0.24,0.21-0.39
		C37.58,39.09,37.57,38.91,37.55,38.73 M36.91,39.36l-0.19,0.12H36.5l-0.18-0.15c-0.05-0.08-0.11-0.19-0.16-0.33
		c-0.05-0.13-0.1-0.3-0.16-0.5c-0.05-0.19-0.1-0.36-0.13-0.51c-0.02-0.13-0.04-0.25-0.04-0.34l0.06-0.23l0.2-0.13h0.22l0.18,0.16
		c0.06,0.08,0.11,0.18,0.16,0.31c0.05,0.14,0.1,0.3,0.16,0.51c0.06,0.19,0.1,0.36,0.13,0.51c0.04,0.13,0.04,0.24,0.04,0.35
		L36.91,39.36z"/>
	<path class="st0" d="M40.45,37.41c-0.04-0.22-0.08-0.41-0.16-0.58c-0.05-0.18-0.13-0.33-0.23-0.43c-0.08-0.11-0.22-0.18-0.36-0.23
		c-0.13-0.05-0.31-0.05-0.52,0l-0.99,0.19l0.59,2.97l0.94-0.18c0.21-0.04,0.36-0.1,0.48-0.19c0.12-0.08,0.21-0.19,0.25-0.34
		c0.05-0.14,0.08-0.31,0.07-0.52C40.53,37.91,40.49,37.68,40.45,37.41 M39.91,38.41l-0.11,0.21c-0.06,0.05-0.13,0.08-0.24,0.1
		l-0.27,0.06l-0.42-2.09l0.26-0.06c0.11-0.01,0.21-0.01,0.28,0.01l0.19,0.16c0.06,0.08,0.1,0.19,0.13,0.31
		c0.04,0.12,0.07,0.27,0.11,0.45c0.04,0.19,0.06,0.36,0.07,0.51C39.94,38.21,39.94,38.32,39.91,38.41"/>
	<polygon class="st0" points="44.44,38.56 42.75,38.69 42.51,35.66 43.13,35.63 43.32,38.15 44.4,38.06 	"/>
	<path class="st0" d="M44.72,44.28c-0.06,0.15-0.11,0.3-0.13,0.46c-0.7-0.16-1.49-0.18-2.17-0.06c-1.23,0.23-2.06,1.09-2.06,1.09
		s0.95,0.3,1.42,1.15c0.46,0.86,0.46,1.96,0.46,1.96s-1.41-1.22-2.62-1.79c-1.46-0.69-3.04-1.01-4.85-0.95
		c-1.82,0.06-2.84,0.69-3.97,1.67c-1.12,0.97-1.91,2.63-1.91,2.63s-0.3-0.89-0.24-1.78c0.05-0.89,0.57-1.41,0.57-1.41
		c-1.36-0.06-2.12,0.44-2.49,0.8l-0.13-0.51c0.14-0.12,0.35-0.24,0.62-0.36c1.86-0.82,2.86-0.11,2.86-0.11s-1.1,1-0.95,2.22
		c0,0,0.94-3.3,5.03-3.65c4.07-0.35,6.83,1.52,7.55,2.22c-0.04-0.15-0.47-1.32-2.22-1.97c0,0,1.2-1.86,3.77-1.86
		C43.77,44.03,44.26,44.14,44.72,44.28"/>
	<polygon class="st0" points="29.17,57.83 29.03,57.84 28.81,57.78 28.94,57.8 	"/>
	<polygon class="st0" points="29.07,55.36 29.07,55.38 29.05,55.36 29.06,55.34 	"/>
	<path class="st0" d="M27.61,57.63c0,0-0.07,0.04-0.19,0.01c-0.05-0.01-0.07-0.03-0.12-0.05h0.02
		C27.44,57.65,27.53,57.66,27.61,57.63"/>
	<polygon class="st0" points="30.84,56.29 30.43,56.27 30.43,56.26 30.46,56.26 30.81,56.27 	"/>
	<polygon class="st0" points="30.87,56.33 30.39,56.29 30.39,56.28 30.86,56.32 	"/>
	<polygon class="st0" points="30.85,56.3 30.39,56.28 30.38,56.27 30.43,56.27 30.84,56.29 	"/>
	<polygon class="st0" points="30.88,56.34 30.55,56.33 30.39,56.32 30.39,56.3 30.87,56.33 	"/>
	<path class="st0" d="M28.77,57.84c0,0-0.08,0.04-0.19,0.02c-0.06-0.01-0.1-0.02-0.15-0.05h0.04
		C28.59,57.86,28.69,57.86,28.77,57.84"/>
	<polygon class="st0" points="27.19,57.51 27.05,57.52 26.82,57.46 26.96,57.49 	"/>
	<path class="st0" d="M28.36,57.77c0,0-0.12,0.04-0.31,0.01c-0.14-0.02-0.25-0.07-0.36-0.1c0.05-0.01,0.11,0,0.18,0.02
		C28.07,57.78,28.23,57.79,28.36,57.77"/>
	<path class="st0" d="M28.32,57.81c0,0-0.1,0.02-0.25,0c-0.07-0.01-0.13-0.02-0.19-0.05c0.01-0.01,0.03,0,0.04,0
		C28.08,57.81,28.22,57.83,28.32,57.81"/>
	<path class="st0" d="M33.61,29.02c0.6,0.54,0.48,1.87-0.72,2.04c-0.33,0.04-0.8-0.16-1.05-0.47c-0.46-0.59-0.98-2.32,2.28-4.06
		c-0.23,0.99,0.06,1.36,0.1,1.42c-1.46,0.5-1.5,1.79-1.01,1.88C33.47,29.89,33.79,29.57,33.61,29.02"/>
	<path class="st0" d="M75.45,42.04c-0.95-0.42-2.69-0.3-4.71,0.52c-0.97-1.43-2.17-2.38-4.19-3.36c-2.58-1.27-10.44-4.88-12.83-8.63
		c-0.25-0.36-0.46-0.78-0.59-1.3l-0.01-0.05c-0.02-0.11-0.04-0.22-0.06-0.34c-0.22-1.39,0.25-2.75,1.24-3.42
		c0.46-0.31,1.19-0.34,1.68-0.12c1.79,0.82,1.34,2.92,0.16,3.48c0.31-0.46,0.3-1.04,0.17-1.39c-0.04-0.22-0.12-0.42-0.28-0.6
		c-0.23-0.28-0.6-0.44-0.98-0.44c-0.37,0-0.75,0.16-0.99,0.44c-0.24,0.28-0.35,0.65-0.29,0.99c0.12-0.66,0.68-1.15,1.28-1.12
		c0.2-0.01,0.4,0.06,0.58,0.16c-0.65,0-1.32,1.12-0.49,2.29C57.39,32.72,71.35,35.75,75.45,42.04"/>
	<path class="st0" d="M45,52.07v2.25h-18.6l-0.01-1.23c0.37-0.28,0.83-0.34,1.18-0.27c0.29,0.07,0.62,0.04,0.86-0.14
		c1.2-0.83,2.85-0.92,3.86-0.83c0.58,0.05,1.16-0.04,1.67-0.29c2.14-1.01,4.18-0.68,5.31-0.33c0.58,0.18,1.2,0.21,1.8,0.08
		C43.15,50.92,45,52.07,45,52.07"/>
	<path class="st0" d="M38.3,28.88c-0.01,0.12-0.02,0.23-0.06,0.34l-0.01,0.05c-0.12,0.52-0.33,0.94-0.59,1.3
		c-2.38,3.75-10.24,7.36-12.83,8.63c-2.02,0.98-3.21,1.93-4.18,3.36c-2.03-0.82-3.76-0.94-4.71-0.52
		c4.1-6.29,18.06-9.32,20.31-12.89c0.82-1.17,0.17-2.29-0.5-2.29c0.18-0.1,0.39-0.17,0.59-0.16c0.6-0.03,1.16,0.46,1.28,1.12
		c0.06-0.34-0.05-0.71-0.29-0.99c-0.24-0.28-0.62-0.44-0.99-0.44c-0.37,0-0.75,0.16-0.99,0.44c-0.16,0.18-0.23,0.39-0.27,0.6
		c-0.13,0.35-0.16,0.93,0.17,1.39c-1.2-0.56-1.63-2.66,0.16-3.48c0.48-0.22,1.21-0.19,1.67,0.12C38.06,26.13,38.51,27.49,38.3,28.88
		"/>
	<path class="st0" d="M75.34,62.32c-0.89-1.4-1.35-2.78-1.58-3.8c-0.12-0.53-0.18-0.98-0.21-1.28c0-0.02-0.01-0.05-0.01-0.07
		c1.9-0.25,3.96-1.26,5.61-2.8c1.79-1.68,3.1-4.02,3.1-6.77c0-2.58-1.15-5.47-4-8.46c-2.81-2.96-7.28-6.02-13.99-9.05
		c0.01-0.1,0.01-0.18,0.01-0.28c0-2.05-0.75-3.65-1.94-4.84c-1.81-1.79-4.58-2.76-7.5-3.68c-2.92-0.93-6.02-1.8-8.5-3.23h-0.01
		l-0.5-0.27l-0.2-0.11l-0.7,0.36v0.01h-0.01c-3.31,1.92-7.71,2.81-11.34,4.2c-1.82,0.7-3.45,1.52-4.66,2.72
		c-1.21,1.19-1.94,2.79-1.94,4.84c0,0.1,0,0.18,0.01,0.28c-6.71,3.03-11.18,6.1-13.99,9.05c-2.85,2.99-4,5.88-4,8.46
		c0,2.75,1.32,5.1,3.1,6.77c1.65,1.55,3.72,2.55,5.6,2.8c-0.07,0.86-0.41,2.97-1.8,5.15C8.89,63.8,4.24,70.42,4.23,76.48
		c0,0.41,0.03,0.83,0.07,1.24c0.42,3.87,2.28,7.01,4.78,9.53c3.77,3.74,8.98,6.11,13.27,7.57c2.15,0.74,4.07,1.26,5.44,1.59
		c0.69,0.17,1.24,0.3,1.63,0.4c0.16,0.02,0.28,0.06,0.36,0.1c0.79,2.39,1.96,4.01,3.37,5.01c1.45,1.04,3.1,1.42,4.7,1.42
		c1.65,0,3.27-0.41,4.64-0.92c1.01-0.4,2.09-0.59,3.15-0.59c1.06,0,2.14,0.19,3.15,0.59c1.36,0.51,2.97,0.92,4.62,0.92
		c1.61,0,3.26-0.39,4.71-1.42c1.41-1.01,2.58-2.62,3.37-5.02c0.07-0.01,0.16-0.04,0.25-0.06c1.7-0.43,7.59-1.67,13.26-4.55
		c2.84-1.44,5.63-3.29,7.81-5.69c2.19-2.39,3.77-5.32,4.16-8.87c0.05-0.41,0.06-0.83,0.06-1.24C87.03,70.42,82.37,63.79,75.34,62.32
		 M86.06,77.61c-0.4,3.65-2.12,6.59-4.53,8.98c-3.59,3.6-8.69,5.93-12.92,7.36c-2.11,0.72-4,1.23-5.36,1.57
		c-0.69,0.17-1.24,0.3-1.63,0.4c-0.19,0.05-0.35,0.09-0.47,0.12l-0.17,0.06l-0.1,0.05c-0.04,0.04-0.12,0.06-0.2,0.26
		c-0.74,2.37-1.84,3.85-3.1,4.76c-1.27,0.9-2.7,1.26-4.18,1.26c-1.5,0-3.02-0.37-4.3-0.87c-1.12-0.42-2.31-0.64-3.48-0.64
		c-1.18,0-2.35,0.22-3.48,0.64c-1.28,0.49-2.8,0.87-4.31,0.87c-1.46,0-2.9-0.35-4.16-1.26c-1.27-0.91-2.37-2.39-3.11-4.76
		c-0.04-0.14-0.11-0.19-0.15-0.23l-0.14-0.08c-0.15-0.06-0.29-0.1-0.53-0.16c-1.73-0.43-7.52-1.65-13.06-4.48
		c-2.78-1.4-5.47-3.21-7.56-5.49c-2.08-2.28-3.56-5.02-3.92-8.37c-0.05-0.37-0.07-0.75-0.07-1.13c-0.01-5.67,4.5-12.05,11.15-13.33
		l0.18-0.04l0.11-0.16c2.06-3.12,2.08-6.13,2.08-6.18v-0.42l-0.42-0.04c-1.75-0.13-3.86-1.07-5.5-2.62
		c-1.64-1.54-2.81-3.64-2.81-6.11c0-2.31,1.01-4.96,3.74-7.83c2.74-2.87,7.18-5.94,13.99-8.98l0.28-0.13l-0.01-0.31
		c-0.01-0.18-0.02-0.35-0.02-0.53c0.01-1.85,0.63-3.14,1.68-4.2c1.58-1.58,4.23-2.55,7.12-3.46c2.91-0.92,6.05-1.79,8.68-3.29
		l0.01-0.01l0.25-0.13l0.25,0.13c0,0,0.01,0,0.01,0.01c3.5,2,7.93,2.9,11.46,4.25c1.76,0.68,3.28,1.46,4.35,2.51
		c1.05,1.06,1.67,2.35,1.68,4.2c0,0.17-0.01,0.35-0.02,0.53l-0.01,0.31l0.28,0.13c6.81,3.04,11.25,6.11,13.99,8.98
		c2.73,2.87,3.74,5.53,3.74,7.83c0,2.46-1.17,4.56-2.81,6.11c-1.64,1.55-3.75,2.49-5.51,2.62l-0.42,0.04v0.42
		c0,0.05,0.01,3.07,2.08,6.18l0.1,0.16l0.19,0.04c6.65,1.28,11.15,7.65,11.14,13.33C86.12,76.86,86.11,77.24,86.06,77.61"/>
	<path class="st0" d="M28.36,91.39c-2.91-0.47-14.17-1.92-19-11.81c-2.21-4.53,0.27-10.55,3.36-12.33c1.32-0.76,2.63-1.13,3.91-1.13
		c1.79,0,3.27,0.71,4.39,1.57l0.22,0.16c1.22,0.98,1.99,2.06,2.22,2.43c0.35,0.51,0.6,0.94,0.83,1.32c0.64,1.04,0.99,1.61,1.79,1.61
		h0.07c0.41-0.03,0.76-0.21,1-0.52c1.39,2.52-0.37,3.62-1.04,3.66c-0.24,0.01-0.42,0.02-0.56,0.04c-0.02,0.01-0.06,0-0.08,0
		c-0.42-0.03-0.85-0.16-1.2-0.42c-0.35-0.25-0.6-0.64-0.72-1.09c-0.16-0.45-0.17-0.93-0.17-1.41c-0.07,0.48-0.14,0.97-0.06,1.46
		c0.06,0.49,0.28,1,0.65,1.38c0.37,0.39,0.87,0.64,1.39,0.76c0.11,0.02,0.22,0.05,0.33,0.06c0.14,0.91,0.69,1.36,1.3,1.52v0.01
		c-0.18,0.36-0.45,0.69-0.8,0.93c-0.47,0.34-1.09,0.49-1.7,0.46c-1.23-0.06-2.44-0.94-2.85-2.22c0.25,1.3,1.4,2.44,2.8,2.67
		c0.69,0.12,1.45,0.02,2.1-0.33c0.25-0.13,0.48-0.3,0.69-0.51c0.01,2.09-1.73,2.81-2.99,2.87c-2,0.11-3.38-0.88-4.19-3.02
		c-0.59-1.58-0.6-3.19-0.6-3.21v-1.42c0,0-0.51,1.86-2.35,2.05c0.93-1.18,1.16-3.17,0.6-3.86c-0.11-0.22-0.24-0.41-0.46-0.54
		c-0.42-0.33-0.98-0.46-1.51-0.42c-1.06,0.04-2.06,0.62-2.72,1.46c-0.65,0.85-0.89,1.96-0.8,2.97c0.02,0.52,0.18,1,0.31,1.48
		c0.17,0.48,0.42,0.92,0.64,1.35c-0.24-0.95-0.53-1.89-0.48-2.85c0.01-0.94,0.24-1.87,0.81-2.6c0.54-0.72,1.38-1.23,2.27-1.36
		c0.35-0.07,0.69-0.01,1.01,0.1c-2.35,0.07-5.26,6.59,3.34,11.98c2.72,1.7,5.01,2.12,6.91,2.28c-0.31,1.1-0.15,2.38,0.54,3.5
		C27.76,90.69,28.01,91.02,28.36,91.39"/>
	<path class="st0" d="M63.19,90.34c-0.64,1.04-2.44,3.03-6.97,3.5c0.88,1.01,1.28,2.33,0.97,3.45c-0.17,0.63-0.45,1.15-0.85,1.53
		c-1.18,1.18-2.98,0.88-3.33,0.82c-0.27-0.06-0.47-0.11-0.66-0.16c-0.51-0.12-0.78-0.19-1.05,0.08c-0.12,0.12-0.17,0.29-0.14,0.46
		c-0.25-0.07-0.47-0.24-0.58-0.36c-0.31-0.39-0.23-0.82-0.18-0.99c0.11-0.12,0.23-0.22,0.36-0.29c0.29-0.19,0.65-0.25,0.99-0.17
		c0.35,0.08,0.65,0.31,0.92,0.58c-0.2-0.31-0.47-0.62-0.86-0.76c-0.39-0.13-0.82-0.06-1.17,0.13c-0.08,0.06-0.17,0.12-0.24,0.18
		l-0.01-0.01c-0.4-0.36-0.77-0.33-1.05-0.14c-0.07,0.02-0.45-0.3-0.56-0.62c-0.13-0.37-0.16-0.97,0.27-1.44
		c0.58-0.64,1.3-0.76,2.2-0.35c0.66,0.3,1.16,0.78,1.16,0.78l0.43,0.45l-0.06-0.62c-0.04-0.33,0.05-0.56,0.16-0.72
		c0.06,0.6,0.48,1.05,0.66,1.23c0.01,0.01,0.01,0.01,0.02,0.02c0.01,0.01,0.02,0.04,0.05,0.04c0.04,0.04,0.07,0.08,0.12,0.1
		c0.24,0.21,0.59,0.24,0.88,0.17c0.36-0.11,0.68-0.33,0.88-0.65c0.19-0.3,0.23-0.72,0.05-1.04c0.17,0.7-0.39,1.32-0.99,1.45
		c-0.19,0.06-0.4,0.05-0.58-0.02c0.1-0.06,0.16-0.12,0.23-0.19c0.19-0.19,0.3-0.42,0.33-0.68l-0.01-0.24
		c-0.05-1.16-2.35-2.15-4.91-1.61c-1.65,0.35-2.69,1.24-3.28,1.84c-0.34,0.35-0.58,0.66-0.75,0.89c-0.18-0.23-0.41-0.54-0.76-0.89
		c-0.59-0.59-1.62-1.49-3.28-1.84c-2.56-0.54-4.87,0.45-4.91,1.61l-0.01,0.24c0.02,0.25,0.13,0.48,0.33,0.68
		c0.07,0.07,0.16,0.13,0.24,0.19c-0.18,0.07-0.4,0.08-0.59,0.02c-0.59-0.13-1.16-0.75-0.99-1.45c-0.18,0.31-0.14,0.74,0.06,1.04
		c0.19,0.33,0.52,0.54,0.88,0.65c0.36,0.08,0.8,0,1.05-0.3c0.01-0.01,0.01-0.01,0.01-0.02l0.01-0.01c0.19-0.18,0.59-0.63,0.65-1.22
		c0.11,0.17,0.19,0.4,0.16,0.72l-0.06,0.62l0.45-0.45c0,0,0.49-0.48,1.15-0.78c0.89-0.41,1.62-0.29,2.2,0.35
		c0.42,0.47,0.4,1.06,0.27,1.44c-0.11,0.31-0.48,0.64-0.56,0.62c-0.28-0.18-0.65-0.22-1.05,0.14l-0.01,0.01
		c-0.07-0.06-0.16-0.12-0.24-0.18c-0.34-0.19-0.78-0.27-1.17-0.13c-0.37,0.15-0.65,0.45-0.86,0.76c0.28-0.26,0.58-0.49,0.92-0.58
		c0.34-0.08,0.7-0.02,0.99,0.17c0.13,0.07,0.25,0.17,0.36,0.29c0.05,0.17,0.13,0.6-0.18,0.99c-0.11,0.12-0.33,0.29-0.58,0.36
		c0.02-0.17-0.02-0.34-0.14-0.46c-0.27-0.28-0.54-0.21-1.05-0.08c-0.18,0.05-0.4,0.1-0.65,0.16c-0.35,0.06-2.16,0.36-3.34-0.82
		c-0.4-0.39-0.68-0.91-0.85-1.53c-0.3-1.12,0.1-2.44,0.97-3.45c-4.53-0.47-6.33-2.46-6.97-3.5c-1.05-1.7-0.87-3.77,0.43-4.91
		c0.54-0.48,1.16-0.82,1.8-0.98c1.96-0.48,3.72,0.68,4.04,0.92c0.25,0.18,0.45,0.34,0.62,0.46c0.47,0.37,0.74,0.57,1.13,0.47
		l0.04-0.01c0.2-0.06,0.35-0.18,0.42-0.35c0.24,0.19,0.37,0.46,0.41,0.62c0.08,0.41-0.11,0.71-0.27,0.88
		c-0.14,0.08-0.33,0.15-0.52,0.15c-0.43,0.02-0.9-0.16-1.16-0.58c0.16,0.47,0.62,0.81,1.13,0.88c0.08,0.01,0.17,0.03,0.27,0.03
		c-0.01,0.26,0.11,0.6,0.89,0.6c-0.01,0.15-0.06,0.3-0.13,0.44c-0.18,0.29-0.47,0.51-0.81,0.62c-0.35,0.11-0.72,0.08-1.09-0.04
		c-0.37-0.12-0.69-0.35-1-0.59c0.52,0.57,1.28,1.06,2.15,0.92c0.42-0.07,0.83-0.29,1.11-0.65c0.02-0.02,0.05-0.06,0.07-0.1
		c0.01,0.53-0.25,1.21-1.07,1.42c-0.77,0.19-1.8,0.02-2.55-0.77c-0.87-0.94-0.99-1.91-0.99-1.91s-0.04,0.82-0.88,1.17
		c0.16-0.23,0.12-0.81-0.14-1.18c-0.04-0.05-0.06-0.1-0.1-0.13c-0.18-0.25-0.45-0.46-0.75-0.56c-0.47-0.17-1.01-0.11-1.46,0.13
		c-0.44,0.27-0.74,0.78-0.7,1.29c0.02,0.51,0.28,0.94,0.54,1.33c-0.18-0.45-0.33-0.88-0.31-1.33c0.02-0.44,0.25-0.83,0.63-1.03
		c0.45-0.29,1.05-0.3,1.54-0.07c-0.14-0.01-0.33,0.02-0.52,0.11c-1.73,0.74,0.64,4.36,3.92,4.36c2.68,0,3.96-0.89,6.92,0.48
		c-0.78-1.12-0.78-2.09-0.7-2.6c0.17-1,0.89-1.83,1.74-1.98c0.36-0.06,0.69-0.04,0.97,0.07c0.88,0.34,1.13,1.32,1.18,1.51
		c0.04,0.15,0.05,0.27,0.07,0.36c0.06,0.29,0.08,0.45,0.27,0.51c0.11,0.04,0.2,0.03,0.28-0.02c0.04,0.15-0.01,0.3-0.05,0.37
		c-0.14,0.31-0.62,0.41-0.62,0.41c-0.1,0.28,0,0.46,0.16,0.56c-0.04,0.14-0.07,0.33-0.18,0.42c-0.16,0.16-0.45,0.3-0.78,0.19
		c-0.46-0.14-0.68-0.48-0.68-1.03c0-0.4,0.13-0.77,0.13-0.77l0.12-0.31l-0.3,0.17c-0.16,0.1-0.29,0.11-0.4,0.08
		c0.33-0.19,0.58-0.85,0.28-0.97c-0.13-0.05-0.34-0.01-0.48,0.06c-0.24,0.12-0.37,0.43-0.42,0.69c-0.16,0.75,0.18,1.63,0.65,2.2
		c0.34,0.4,0.68,0.69,0.99,0.89c0.25,0.17,1.34,0.84,1.51,0.97l0.22,0.14l0.21-0.14c0.17-0.12,1.26-0.8,1.51-0.97
		c0.31-0.21,0.66-0.5,0.99-0.89c0.47-0.57,0.81-1.45,0.65-2.2c-0.05-0.25-0.18-0.57-0.42-0.69c-0.13-0.07-0.34-0.11-0.48-0.06
		c-0.3,0.12-0.04,0.77,0.28,0.97c-0.11,0.02-0.24,0.01-0.4-0.08l-0.29-0.17l0.12,0.31c0,0,0.13,0.37,0.13,0.77
		c0,0.54-0.23,0.88-0.69,1.03c-0.33,0.11-0.63-0.04-0.78-0.19c-0.11-0.1-0.14-0.28-0.18-0.42c0.16-0.1,0.27-0.28,0.16-0.56
		c0,0-0.46-0.1-0.62-0.41c-0.04-0.07-0.07-0.23-0.05-0.37c0.07,0.05,0.17,0.06,0.28,0.02c0.18-0.06,0.22-0.22,0.27-0.51
		c0.02-0.1,0.05-0.22,0.07-0.36c0.05-0.19,0.31-1.17,1.18-1.51c0.29-0.11,0.62-0.13,0.97-0.07c0.85,0.15,1.58,0.98,1.74,1.98
		c0.08,0.51,0.08,1.47-0.7,2.6c2.96-1.38,4.24-0.48,6.92-0.48c3.28,0,5.66-3.62,3.94-4.36c-0.19-0.08-0.36-0.12-0.51-0.11
		c0.48-0.23,1.07-0.21,1.52,0.07c0.37,0.19,0.62,0.59,0.63,1.03c0.02,0.45-0.13,0.88-0.31,1.33c0.28-0.39,0.52-0.82,0.54-1.33
		c0.04-0.51-0.25-1.03-0.7-1.29c-0.45-0.24-0.99-0.3-1.46-0.13c-0.31,0.1-0.58,0.3-0.75,0.57c-0.04,0.04-0.06,0.08-0.08,0.12
		c-0.28,0.37-0.31,0.95-0.16,1.18c-0.85-0.35-0.88-1.17-0.88-1.17s-0.11,0.97-0.99,1.91c-0.74,0.8-1.77,0.97-2.55,0.77
		c-0.83-0.22-1.1-0.91-1.08-1.44l0.07,0.11c0.28,0.36,0.69,0.58,1.11,0.65c0.87,0.15,1.63-0.35,2.15-0.92
		c-0.31,0.24-0.63,0.47-0.99,0.59c-0.36,0.12-0.75,0.15-1.1,0.04c-0.34-0.11-0.63-0.33-0.81-0.62c-0.07-0.13-0.12-0.29-0.13-0.44
		c0.78,0,0.91-0.34,0.89-0.6c0.1,0,0.18-0.01,0.27-0.03c0.52-0.07,0.99-0.41,1.13-0.88c-0.25,0.42-0.72,0.6-1.15,0.58
		c-0.19,0-0.39-0.06-0.53-0.15c-0.16-0.17-0.35-0.47-0.27-0.88c0.04-0.16,0.18-0.42,0.41-0.62c0.07,0.17,0.22,0.29,0.42,0.35
		l0.04,0.01c0.4,0.1,0.66-0.1,1.13-0.47c0.17-0.12,0.36-0.28,0.62-0.46c0.33-0.24,2.09-1.4,4.04-0.92c0.65,0.16,1.26,0.5,1.8,0.98
		C64.06,86.57,64.24,88.63,63.19,90.34"/>
</g>
</svg>
